<svg width="13" height="14" viewBox="0 0 13 14" fill="none" xmlns="http://www.w3.org/2000/svg">
<path d="M6.5 10.832C5.73828 9.89453 5.29883 9.07422 5.18164 8.37109C4.50781 5.79297 8.46289 5.79297 7.81836 8.37109C7.64258 9.10352 7.20312 9.89453 6.5 10.832ZM10.543 12.9707C9.3125 13.498 8.08203 12.6484 7.02734 11.4766C10.0742 7.66797 8.375 5.61719 6.5 5.61719C4.88867 5.61719 3.98047 6.99414 4.33203 8.57617C4.53711 9.42578 5.06445 10.3926 5.94336 11.4766C4.97656 12.5312 4.15625 13.0293 3.45312 13.0879C1.98828 13.3223 0.816406 11.8867 1.34375 10.4219C1.7832 9.2793 4.625 3.6543 4.74219 3.36133C5.21094 2.48242 5.50391 1.66211 6.4707 1.66211C7.4375 1.66211 7.75977 2.42383 8.25781 3.41992C9.3125 5.5 10.8652 8.63477 11.627 10.4219C12.0078 11.3887 11.5684 12.502 10.543 12.9707ZM11.9199 8.98633C8.14062 0.929688 7.93555 0.8125 6.5 0.8125C5.15234 0.8125 4.5957 1.75 4.00977 2.95117C0.904297 9.19141 0.582031 10.0703 0.582031 10.1289C-0.179688 12.1797 1.34375 13.9375 3.18945 13.9375C3.83398 13.9375 4.97656 13.7617 6.5 12.1211C8.19922 13.9961 9.45898 13.9375 9.78125 13.9375C11.627 13.9668 13.1504 12.1797 12.3887 10.1289C12.418 10.0117 11.9199 8.98633 11.9199 8.98633Z" fill="#999999"/>
</svg>
