<svg width="14" height="14" viewBox="0 0 14 14" fill="none" xmlns="http://www.w3.org/2000/svg">
<path d="M7.9668 4.65039C6.53125 4.70898 2.98633 5.11914 2.98633 8.10742C2.98633 11.3008 7.05859 11.4473 8.37695 9.36719C8.55273 9.66016 9.40234 10.4512 9.69531 10.7441L11.3652 9.10352C11.3652 9.10352 10.4277 8.3418 10.4277 7.55078V3.24414C10.4277 2.48242 9.69531 0.8125 7.11719 0.8125C4.53906 0.8125 3.19141 2.42383 3.19141 3.88867L5.33008 4.09375C5.79883 2.62891 6.91211 2.62891 6.91211 2.62891C8.11328 2.62891 7.9668 3.50781 7.9668 4.65039ZM7.9668 7.19922C7.9668 9.54297 5.50586 9.19141 5.50586 7.69727C5.50586 6.32031 6.9707 6.02734 7.9668 5.99805V7.19922ZM11.9512 11.9746C12.1855 11.6816 12.0098 11.5352 11.7754 11.623C6.38477 14.2012 3.01562 12.0625 0.876953 10.7441C0.730469 10.6562 0.496094 10.7734 0.701172 10.9785C1.43359 11.8574 3.77734 13.9375 6.82422 13.9375C9.90039 13.9375 11.7168 12.2676 11.9512 11.9746ZM13.123 12.0625C13.2988 11.5938 13.416 10.9492 13.2988 10.8027C13.1523 10.5977 12.4199 10.5684 11.9512 10.627C11.4824 10.6855 10.7793 10.9785 10.8672 11.125C10.8965 11.2129 10.9551 11.1836 11.2773 11.1543C11.5996 11.125 12.4785 11.0078 12.6836 11.2422C12.8594 11.4766 12.3906 12.6484 12.3027 12.8535C12.2148 13.0293 12.332 13.0879 12.4785 12.9707C12.6543 12.8242 12.918 12.502 13.123 12.0625Z" fill="#999999"/>
</svg>
