<svg width="17" height="14" viewBox="0 0 17 14" fill="none" xmlns="http://www.w3.org/2000/svg">
<path d="M15.5312 0.8125H1.46875C0.677734 0.8125 0.0625 1.45703 0.0625 2.21875V12.5312C0.0625 13.3223 0.677734 13.9375 1.46875 13.9375H15.5312C16.293 13.9375 16.9375 13.3223 16.9375 12.5312V2.21875C16.9375 1.45703 16.293 0.8125 15.5312 0.8125ZM15.5312 12.5312H1.46875V2.21875H15.5312V12.5312ZM6.15625 7.375C7.18164 7.375 8.03125 6.55469 8.03125 5.5C8.03125 4.47461 7.18164 3.625 6.15625 3.625C5.10156 3.625 4.28125 4.47461 4.28125 5.5C4.28125 6.55469 5.10156 7.375 6.15625 7.375ZM3.51953 11.125H8.76367C9.14453 11.125 9.4375 10.8906 9.4375 10.5684V10.0117C9.4375 9.07422 8.5293 8.3125 7.44531 8.3125C7.15234 8.3125 6.91797 8.54688 6.15625 8.54688C5.36523 8.54688 5.16016 8.3125 4.83789 8.3125C3.75391 8.3125 2.875 9.07422 2.875 10.0117V10.5684C2.875 10.8906 3.16797 11.125 3.51953 11.125ZM10.6094 9.25H13.8906C14.0078 9.25 14.125 9.16211 14.125 9.01562V8.54688C14.125 8.42969 14.0078 8.3125 13.8906 8.3125H10.6094C10.4629 8.3125 10.375 8.42969 10.375 8.54688V9.01562C10.375 9.16211 10.4629 9.25 10.6094 9.25ZM10.6094 7.375H13.8906C14.0078 7.375 14.125 7.28711 14.125 7.14062V6.67188C14.125 6.55469 14.0078 6.4375 13.8906 6.4375H10.6094C10.4629 6.4375 10.375 6.55469 10.375 6.67188V7.14062C10.375 7.28711 10.4629 7.375 10.6094 7.375ZM10.6094 5.5H13.8906C14.0078 5.5 14.125 5.41211 14.125 5.26562V4.79688C14.125 4.67969 14.0078 4.5625 13.8906 4.5625H10.6094C10.4629 4.5625 10.375 4.67969 10.375 4.79688V5.26562C10.375 5.41211 10.4629 5.5 10.6094 5.5Z" fill="#999999"/>
</svg>
