<svg width="14" height="14" viewBox="0 0 14 14" fill="none" xmlns="http://www.w3.org/2000/svg">
<path d="M12.625 0.8125H1.3457C0.847656 0.8125 0.4375 1.25195 0.4375 1.7793V13C0.4375 13.5273 0.847656 13.9375 1.3457 13.9375H12.625C13.123 13.9375 13.5625 13.5273 13.5625 13V1.7793C13.5625 1.25195 13.123 0.8125 12.625 0.8125ZM4.39258 12.0625H2.45898V5.82227H4.39258V12.0625ZM3.42578 4.94336C2.78125 4.94336 2.2832 4.44531 2.2832 3.83008C2.2832 3.21484 2.78125 2.6875 3.42578 2.6875C4.04102 2.6875 4.53906 3.21484 4.53906 3.83008C4.53906 4.44531 4.04102 4.94336 3.42578 4.94336ZM11.6875 12.0625H9.72461V9.01562C9.72461 8.3125 9.72461 7.375 8.72852 7.375C7.70312 7.375 7.55664 8.16602 7.55664 8.98633V12.0625H5.62305V5.82227H7.46875V6.67188H7.49805C7.76172 6.17383 8.40625 5.64648 9.34375 5.64648C11.3066 5.64648 11.6875 6.96484 11.6875 8.63477V12.0625Z" fill="#999999"/>
</svg>
