<svg width="13" height="15" viewBox="0 0 13 15" fill="none" xmlns="http://www.w3.org/2000/svg">
<path d="M4.12695 8.54688C4.30273 7.63867 5.06445 7.87305 6.32422 7.84375C8.31641 7.81445 9.81055 7.02344 10.4258 5.20703C11.0703 3.41992 10.8945 1.7793 9.13672 1.10547C7.99414 0.636719 7.64258 0.753906 3.16016 0.753906C2.86719 0.753906 2.63281 0.958984 2.57422 1.25195L0.875 12.1504C0.845703 12.3555 0.992188 12.5605 1.22656 12.5605H3.39453C3.45312 12.5605 3.48242 12.5312 3.48242 12.4727C3.62891 11.7402 4.00977 9.13281 4.12695 8.54688ZM11.334 4.32812C11.2754 4.29883 11.2461 4.29883 11.2461 4.38672C11.1875 4.70898 11.0996 5.03125 10.9824 5.35352C9.81055 8.69336 6.55859 8.40039 4.97656 8.40039C4.80078 8.40039 4.68359 8.51758 4.6543 8.69336C4.00977 12.7949 3.86328 13.6445 3.86328 13.6445C3.83398 13.8496 3.98047 14.0254 4.18555 14.0254H6.03125C6.29492 14.0254 6.5 13.8496 6.55859 13.5859C6.58789 13.4395 6.5293 13.7617 6.96875 10.9199C7.11523 10.2754 7.4082 10.334 7.84766 10.334C9.92773 10.334 11.5391 9.51367 12.0078 7.05273C12.2129 6.02734 12.1543 4.97266 11.334 4.32812Z" fill="#999999"/>
</svg>
