<svg width="21" height="21" viewBox="0 0 21 21" fill="none" xmlns="http://www.w3.org/2000/svg">
<path d="M3.04839 3.09073C5.10887 1.03024 7.59274 0 10.5 0C13.4073 0 15.877 1.03024 17.9093 3.09073C19.9698 5.12298 21 7.59274 21 10.5C21 13.4073 19.9698 15.8911 17.9093 17.9516C15.877 19.9839 13.4073 21 10.5 21C7.59274 21 5.10887 19.9839 3.04839 17.9516C1.01613 15.8911 0 13.4073 0 10.5C0 7.59274 1.01613 5.12298 3.04839 3.09073ZM15.6653 13.252L12.871 10.5L15.6653 7.74798C15.8911 7.49395 15.8911 7.25403 15.6653 7.02823L13.9718 5.33468C13.746 5.10887 13.506 5.10887 13.252 5.33468L10.5 8.12903L7.74798 5.33468C7.49395 5.10887 7.25403 5.10887 7.02823 5.33468L5.33468 7.02823C5.10887 7.25403 5.10887 7.49395 5.33468 7.74798L8.12903 10.5L5.33468 13.252C5.10887 13.506 5.10887 13.746 5.33468 13.9718L7.02823 15.6653C7.25403 15.8911 7.49395 15.8911 7.74798 15.6653L10.5 12.871L13.252 15.6653C13.506 15.8911 13.746 15.8911 13.9718 15.6653L15.6653 13.9718C15.8911 13.746 15.8911 13.506 15.6653 13.252Z" fill="#777777"/>
</svg>
