<svg width="47" height="35" viewBox="0 0 47 35" fill="none" xmlns="http://www.w3.org/2000/svg">
<path d="M42.5938 0H4.40625C1.92773 0 0 2.00521 0 4.375V30.625C0 33.0859 1.92773 35 4.40625 35H42.5938C44.9805 35 47 33.0859 47 30.625V4.375C47 2.00521 44.9805 0 42.5938 0ZM42.5938 4.375V8.11198C40.4824 9.84375 37.1777 12.3958 30.2012 17.8646C28.6406 19.0495 25.6113 21.9661 23.5 21.875C21.2969 21.9661 18.2676 19.0495 16.707 17.8646C9.73047 12.3958 6.42578 9.84375 4.40625 8.11198V4.375H42.5938ZM4.40625 30.625V13.763C6.42578 15.4036 9.45508 17.7734 13.9531 21.3281C15.9727 22.8776 19.5527 26.3411 23.5 26.25C27.3555 26.3411 30.8437 22.8776 32.9551 21.3281C37.4531 17.7734 40.4824 15.4036 42.5938 13.763V30.625H4.40625Z" fill="#E5E5E5"/>
</svg>
