<svg width="26" height="26" viewBox="0 0 26 26" fill="none" xmlns="http://www.w3.org/2000/svg">
<path d="M5.19055 11.0975C5.51503 11.0975 5.79083 11.2111 6.01797 11.4382C6.2451 11.6653 6.35867 11.9411 6.35867 12.2656V23.9469C6.35867 24.2714 6.2451 24.5472 6.01797 24.7743C5.79083 25.0014 5.51503 25.115 5.19055 25.115H1.2968C0.972317 25.115 0.69651 25.0014 0.469375 24.7743C0.242239 24.5472 0.128672 24.2714 0.128672 23.9469V12.2656C0.128672 11.9411 0.242239 11.6653 0.469375 11.4382C0.69651 11.2111 0.972317 11.0975 1.2968 11.0975H5.19055ZM2.41625 22.8274C2.64339 23.0546 2.91919 23.1681 3.24367 23.1681C3.56815 23.1681 3.84396 23.0546 4.07109 22.8274C4.29823 22.6003 4.4118 22.3245 4.4118 22C4.4118 21.6755 4.29823 21.3997 4.07109 21.1726C3.84396 20.9454 3.56815 20.8319 3.24367 20.8319C2.91919 20.8319 2.64339 20.9454 2.41625 21.1726C2.18911 21.3997 2.07555 21.6755 2.07555 22C2.07555 22.3245 2.18911 22.6003 2.41625 22.8274ZM18.8187 4.13742C18.8187 4.94862 18.5591 5.87339 18.0399 6.91172C17.5208 7.9176 17.2449 8.53411 17.2125 8.76125H22.1284C22.9396 8.76125 23.621 9.05328 24.1726 9.63734C24.7566 10.189 25.0487 10.8379 25.0487 11.5842C25.0487 12.5577 24.7404 13.3526 24.1239 13.9691H24.0752C24.3348 14.5208 24.4322 15.1697 24.3673 15.916C24.3024 16.6623 24.059 17.3113 23.6372 17.8629C23.8319 18.5118 23.8481 19.177 23.6859 19.8584C23.5236 20.5074 23.2478 21.059 22.8584 21.5133C23.0531 22.3569 22.9558 23.0708 22.5664 23.6548C22.2419 24.1091 21.739 24.4498 21.0576 24.677C20.3762 24.9041 19.7597 25.0339 19.208 25.0663C18.6889 25.0988 17.9588 25.115 17.0178 25.115H16.8718C15.3143 25.115 13.3674 24.5958 11.0312 23.5575C9.89549 23.0383 9.05185 22.7788 8.50023 22.7788C8.33799 22.7788 8.19198 22.7139 8.06219 22.5841C7.96484 22.4867 7.91617 22.3569 7.91617 22.1947V11.7789C7.91617 11.6167 7.98107 11.4869 8.11086 11.3895C8.75982 10.7081 9.50612 9.75091 10.3498 8.51789C11.2259 7.25242 11.9235 6.37633 12.4427 5.88961C12.8969 5.40289 13.3025 4.44568 13.6595 3.01797C14.1137 1.13599 14.6653 0.195 15.3143 0.195C15.6712 0.195 16.0119 0.243672 16.3364 0.341016C16.6933 0.405911 17.0665 0.568151 17.4559 0.827734C17.8777 1.05487 18.2022 1.46047 18.4293 2.04453C18.6889 2.62859 18.8187 3.32622 18.8187 4.13742Z" fill="#ACFD00"/>
</svg>
