<svg width="32" height="43" viewBox="0 0 32 43" fill="none" xmlns="http://www.w3.org/2000/svg">
<path d="M14.3333 42.119C15.0833 43.2937 16.8333 43.2937 17.5833 42.119C29.75 24.4995 32 22.6537 32 16.1093C32 7.21561 24.8333 0 16 0C7.08333 0 0 7.21561 0 16.1093C0 22.6537 2.16667 24.4995 14.3333 42.119ZM16 22.8215C12.25 22.8215 9.33333 19.8849 9.33333 16.1093C9.33333 12.4176 12.25 9.39707 16 9.39707C19.6667 9.39707 22.6667 12.4176 22.6667 16.1093C22.6667 19.8849 19.6667 22.8215 16 22.8215Z" fill="#E5E5E5"/>
</svg>
