<svg width="19" height="16" viewBox="0 0 19 16" fill="none" xmlns="http://www.w3.org/2000/svg">
<path d="M18.1133 4.36133L16.209 1.31445C16.0332 1.05078 15.7402 0.875 15.418 0.875H3.58203C3.25977 0.875 2.9375 1.05078 2.76172 1.31445L0.886719 4.36133C-0.109375 5.94336 0.769531 8.11133 2.58594 8.3457C2.73242 8.375 2.84961 8.375 2.99609 8.375C3.875 8.375 4.63672 7.99414 5.16406 7.4082C5.69141 7.99414 6.45312 8.375 7.33203 8.375C8.18164 8.375 8.94336 7.99414 9.4707 7.4082C9.99805 7.99414 10.7891 8.375 11.6387 8.375C12.5176 8.375 13.2793 7.99414 13.8066 7.4082C14.334 7.99414 15.0957 8.375 15.9746 8.375C16.1211 8.375 16.2383 8.375 16.3848 8.3457C18.2012 8.11133 19.0801 5.94336 18.1133 4.36133ZM15.9746 9.3125C15.6816 9.3125 15.3887 9.2832 15.125 9.22461V12.125H3.875V9.22461C3.58203 9.2832 3.28906 9.3125 2.99609 9.3125C2.82031 9.3125 2.64453 9.3125 2.46875 9.2832C2.29297 9.25391 2.14648 9.22461 2 9.19531V14.9375C2 15.4648 2.41016 15.875 2.9375 15.875H16.0625C16.5605 15.875 17 15.4648 17 14.9375V9.19531C16.8242 9.22461 16.6777 9.2832 16.502 9.2832C16.3262 9.3125 16.1504 9.3125 15.9746 9.3125Z" fill="white"/>
</svg>
