<svg width="17" height="16" viewBox="0 0 17 16" fill="none" xmlns="http://www.w3.org/2000/svg">
<path d="M13.8616 2.46476C15.3954 3.97753 16.1623 5.81596 16.1623 7.98006C16.1623 10.1442 15.3954 11.9931 13.8616 13.5269C12.3489 15.0396 10.5104 15.796 8.34632 15.796C6.18223 15.796 4.33329 15.0396 2.79951 13.5269C1.28674 11.9931 0.530358 10.1442 0.530358 7.98006C0.530358 5.81596 1.28674 3.97753 2.79951 2.46476C4.33329 0.930982 6.18223 0.164093 8.34632 0.164093C10.5104 0.164093 12.3489 0.930982 13.8616 2.46476ZM7.43236 12.1087L13.2313 6.30971C13.4834 6.07859 13.4834 5.84748 13.2313 5.61636L12.5379 4.89149C12.2858 4.66037 12.0442 4.66037 11.8131 4.89149L7.08568 9.61889L4.87956 7.41277C4.64845 7.18165 4.40682 7.18165 4.1547 7.41277L3.46134 8.13764C3.20922 8.36876 3.20922 8.59987 3.46134 8.83099L6.73901 12.1087C6.97012 12.3608 7.20124 12.3608 7.43236 12.1087Z" fill="#ACFD00"/>
</svg>
