<svg width="42" height="42" viewBox="0 0 42 42" fill="none" xmlns="http://www.w3.org/2000/svg">
<path d="M1.55728 2.0328L10.0813 0.0631622C10.9829 -0.183042 11.9665 0.309367 12.3763 1.21212L16.3105 10.4038C16.6383 11.2244 16.3924 12.1272 15.7367 12.7017L10.737 16.8051C13.6877 23.0422 18.8513 28.2946 25.2443 31.3311L29.3425 26.325C29.9162 25.6684 30.8178 25.4222 31.6374 25.7505L40.8172 29.6898C41.7187 30.1001 42.1286 31.0849 41.9646 31.9877L39.9975 40.5228C39.7517 41.4255 39.014 42 38.0304 42C17.0481 42 0 25.0119 0 3.92037C0 3.01762 0.655697 2.279 1.55728 2.0328Z" fill="#E5E5E5"/>
</svg>
