<svg width="26" height="21" viewBox="0 0 26 21" fill="none" xmlns="http://www.w3.org/2000/svg">
<path d="M24.7969 11.0859C25.2656 11.2682 25.5 11.5938 25.5 12.0625C25.5 13 25.3828 13.8854 25.1484 14.7188C24.9141 15.5521 24.6146 16.2812 24.25 16.9062C23.8854 17.5052 23.4688 18.0521 23 18.5469C22.5312 19.0417 22.0755 19.4323 21.6328 19.7188C21.1901 20.0052 20.7474 20.2396 20.3047 20.4219C20.0182 20.526 19.7318 20.526 19.4453 20.4219C18.0651 19.875 16.8542 18.8594 15.8125 17.375C14.7708 15.8646 14.25 14.0938 14.25 12.0625C14.25 11.5938 14.4844 11.2682 14.9531 11.0859L19.4453 9.32812C19.7318 9.22396 20.0182 9.22396 20.3047 9.32812L24.7969 11.0859ZM19.875 18.5469C20.7344 18.1562 21.5417 17.4531 22.2969 16.4375C23.0781 15.4219 23.5208 14.1589 23.625 12.6484L19.875 11.1641V18.5469ZM12.7656 9.05469C11.8021 10.0182 10.6302 10.5 9.25 10.5C7.86979 10.5 6.6849 10.0182 5.69531 9.05469C4.73177 8.0651 4.25 6.88021 4.25 5.5C4.25 4.11979 4.73177 2.94792 5.69531 1.98438C6.6849 0.994792 7.86979 0.5 9.25 0.5C10.6302 0.5 11.8021 0.994792 12.7656 1.98438C13.7552 2.94792 14.25 4.11979 14.25 5.5C14.25 6.88021 13.7552 8.0651 12.7656 9.05469ZM13 12.0625C13 13.8333 13.3516 15.4349 14.0547 16.8672C14.7839 18.2734 15.7214 19.4323 16.8672 20.3438C16.6328 20.4479 16.3854 20.5 16.125 20.5H2.375C1.85417 20.5 1.41146 20.3177 1.04688 19.9531C0.682292 19.5885 0.5 19.1458 0.5 18.625V16.9844C0.5 15.5521 1.00781 14.3281 2.02344 13.3125C3.0651 12.2708 4.30208 11.75 5.73438 11.75H6.39844C7.3099 12.1667 8.26042 12.375 9.25 12.375C10.2396 12.375 11.1901 12.1667 12.1016 11.75H12.7656C12.7917 11.75 12.8307 11.763 12.8828 11.7891C12.9609 11.7891 13.013 11.7891 13.0391 11.7891C13.0391 11.7891 13.026 11.8281 13 11.9062C13 11.9844 13 12.0365 13 12.0625Z" fill="#777777"/>
</svg>
