<svg width="21" height="24" viewBox="0 0 21 24" fill="none" xmlns="http://www.w3.org/2000/svg">
<path d="M16.25 15.25C17.4479 15.25 18.4661 15.6693 19.3047 16.5078C20.1432 17.3464 20.5625 18.3646 20.5625 19.5625C20.5625 20.7604 20.1432 21.7786 19.3047 22.6172C18.4661 23.4557 17.4479 23.875 16.25 23.875C15.0521 23.875 14.0339 23.4557 13.1953 22.6172C12.3568 21.7786 11.9375 20.7604 11.9375 19.5625C11.9375 19.2331 11.9674 18.9186 12.0273 18.6191L7.44531 15.7441C6.66667 16.373 5.76823 16.6875 4.75 16.6875C3.55208 16.6875 2.53385 16.2682 1.69531 15.4297C0.856771 14.5911 0.4375 13.5729 0.4375 12.375C0.4375 11.1771 0.856771 10.1589 1.69531 9.32031C2.53385 8.48177 3.55208 8.0625 4.75 8.0625C5.76823 8.0625 6.66667 8.37695 7.44531 9.00586L12.0273 6.13086C11.9674 5.83138 11.9375 5.51693 11.9375 5.1875C11.9375 3.98958 12.3568 2.97135 13.1953 2.13281C14.0339 1.29427 15.0521 0.875 16.25 0.875C17.4479 0.875 18.4661 1.29427 19.3047 2.13281C20.1432 2.97135 20.5625 3.98958 20.5625 5.1875C20.5625 6.38542 20.1432 7.40365 19.3047 8.24219C18.4661 9.08073 17.4479 9.5 16.25 9.5C15.2318 9.5 14.3333 9.18555 13.5547 8.55664L8.97266 11.4316C9.03255 11.7311 9.0625 12.0456 9.0625 12.375C9.0625 12.7044 9.03255 13.0189 8.97266 13.3184L13.5547 16.1934C14.3333 15.5645 15.2318 15.25 16.25 15.25Z" fill="#ACFD00"/>
</svg>
