<svg width="10" height="12" viewBox="0 0 10 12" fill="none" xmlns="http://www.w3.org/2000/svg">
<path d="M9.04259 0.618607H0.957366C0.733431 0.618607 0.556641 0.793704 0.556641 1.01549V1.4474C0.556641 1.66919 0.733431 1.84429 0.957366 1.84429H3.78602C4.10424 1.84429 4.35175 2.1011 4.35175 2.4046V11.1011C4.35175 11.3229 4.52854 11.498 4.75247 11.498H5.2357C5.45963 11.498 5.63642 11.3229 5.63642 11.1011V2.41627C5.63642 2.1011 5.89572 1.85596 6.20215 1.85596H9.04259C9.26652 1.85596 9.44331 1.68086 9.44331 1.45907V1.02717C9.44331 0.805377 9.26652 0.618607 9.04259 0.618607Z" fill="#C6FF00"/>
</svg>
