<svg width="26" height="27" viewBox="0 0 26 27" fill="none" xmlns="http://www.w3.org/2000/svg">
<path d="M23.1596 4.63424L16.1587 0.805447C14.1904 -0.268482 11.8096 -0.268482 9.84134 0.805447L2.86401 4.62257C1.0961 5.57977 0 7.42412 0 9.42023V16.6576C0 18.9689 1.26111 21.0934 3.31188 22.2023L11.2557 26.5447C12.34 27.1401 13.66 27.1401 14.7443 26.5447L22.6881 22.2023C24.7271 21.0817 26 18.9572 26 16.6576V9.38521C26 7.41245 24.9157 5.59144 23.1596 4.63424ZM23.0888 10.9494L15.6754 23.1128C15.3926 23.5798 14.9918 23.9533 14.5322 24.2101C14.0725 24.4669 13.5422 24.607 13 24.607C11.9039 24.607 10.8903 24.035 10.3246 23.1128L2.91115 10.9494C2.31006 9.96887 2.31006 8.73152 2.91115 7.75097L2.9583 7.66926C3.52403 6.74708 4.53762 6.18677 5.63373 6.18677H20.3663C21.4624 6.18677 22.476 6.75875 23.0417 7.68093L23.0888 7.76264C23.6899 8.74319 23.6899 9.96887 23.0888 10.9494Z" fill="#C6FF00"/>
</svg>
