<svg width="15" height="11" viewBox="0 0 15 11" fill="none" xmlns="http://www.w3.org/2000/svg">
<path d="M13.5342 10.6362C14.2543 10.6362 14.8637 10.0546 14.8637 9.30669V1.32941C14.8637 0.609242 14.2543 -0.000133038 13.5342 -0.000133038H2.01145C1.26358 -0.000133038 0.681907 0.609242 0.681907 1.32941V9.30669C0.681907 10.0546 1.26358 10.6362 2.01145 10.6362H13.5342ZM3.78418 1.551C4.61515 1.551 5.33532 2.27117 5.33532 3.10214C5.33532 3.9608 4.61515 4.65328 3.78418 4.65328C2.92551 4.65328 2.23304 3.9608 2.23304 3.10214C2.23304 2.27117 2.92551 1.551 3.78418 1.551ZM2.45463 8.8635V7.53396L4.42125 5.56734C4.55975 5.42884 4.75364 5.42884 4.89213 5.56734L6.44327 7.09078L10.1826 3.35143C10.3211 3.21294 10.515 3.21294 10.6535 3.35143L13.091 5.76123V8.8635H2.45463Z" fill="#999999"/>
</svg>
