<svg width="21" height="13" viewBox="0 0 21 13" fill="none" xmlns="http://www.w3.org/2000/svg">
<path d="M19.9297 6.16016C18.1367 2.64062 14.5508 0.25 10.5 0.25C6.41602 0.25 2.83008 2.64062 1.03711 6.16016C0.970703 6.29297 0.9375 6.45898 0.9375 6.625C0.9375 6.82422 0.970703 6.99023 1.03711 7.12305C2.83008 10.6426 6.41602 13 10.5 13C14.5508 13 18.1367 10.6426 19.9297 7.12305C19.9961 6.99023 20.0293 6.82422 20.0293 6.6582C20.0293 6.45898 19.9961 6.29297 19.9297 6.16016ZM10.5 11.4062C7.84375 11.4062 5.71875 9.28125 5.71875 6.625C5.71875 4.00195 7.84375 1.84375 10.5 1.84375C13.123 1.84375 15.2812 4.00195 15.2812 6.625V6.6582C15.2812 9.28125 13.123 11.4395 10.5 11.4395V11.4062ZM10.5 3.4375C10.2012 3.4707 9.90234 3.50391 9.63672 3.57031C9.83594 3.83594 9.93555 4.16797 9.93555 4.5332C9.93555 5.39648 9.23828 6.09375 8.375 6.09375C8.00977 6.09375 7.67773 5.99414 7.41211 5.79492C7.3457 6.06055 7.3125 6.35938 7.3125 6.625C7.3125 8.38477 8.74023 9.8125 10.5 9.8125C12.2598 9.8125 13.6875 8.38477 13.6875 6.625C13.6875 4.86523 12.2598 3.4707 10.5 3.4707V3.4375Z" fill="#ACFD00"/>
</svg>
