<svg width="54" height="21" viewBox="0 0 54 21" fill="none" xmlns="http://www.w3.org/2000/svg">
<path d="M5.41177 11.6895H3.65186V13.3048H5.41177V11.6895Z" fill="#ACFD00"/>
<path d="M5.41177 14.1125H3.65186V21H5.41177V14.1125Z" fill="#ACFD00"/>
<path d="M25.944 16.3448C25.8267 15.8601 25.6214 15.4196 25.3427 15.0524C25.0641 14.6706 24.7121 14.3769 24.2721 14.142C23.8468 13.9217 23.3335 13.8042 22.7468 13.8042C22.2335 13.8042 21.7496 13.8923 21.3242 14.0832C20.8989 14.2741 20.5323 14.5238 20.2243 14.8469C19.9163 15.1699 19.6817 15.5518 19.5057 15.9923C19.3443 16.4329 19.2563 16.9175 19.2563 17.4168C19.2563 17.9455 19.3443 18.4301 19.5057 18.8706C19.667 19.3112 19.9016 19.693 20.195 20.0161C20.4883 20.3392 20.8549 20.5741 21.2949 20.7503C21.7202 20.9266 22.2189 21.0147 22.7468 21.0147C23.5241 21.0147 24.1841 20.8385 24.7267 20.486C25.2694 20.1336 25.68 19.5462 25.944 18.7238H24.2868C24.2281 18.9294 24.0521 19.135 23.7881 19.3259C23.5095 19.5168 23.1868 19.6049 22.8055 19.6049C22.2775 19.6049 21.8669 19.4727 21.5882 19.1937C21.3096 18.9147 21.1483 18.4741 21.1189 17.872H26.0467C26.1053 17.3434 26.0613 16.8294 25.944 16.3448ZM21.1336 16.6825C21.1483 16.5504 21.1776 16.4035 21.2216 16.2273C21.2656 16.0657 21.3536 15.9042 21.4709 15.7573C21.5882 15.6105 21.7496 15.4783 21.9402 15.3755C22.1455 15.2727 22.3949 15.2287 22.6882 15.2287C23.1428 15.2287 23.4948 15.3462 23.7148 15.5958C23.9348 15.8455 24.0961 16.2126 24.1841 16.6825H21.1336Z" fill="#ACFD00"/>
<path d="M17.9951 15.6692C17.0124 15.6692 16.5578 16.3007 16.5578 17.3286V20.9853H14.7686V17.358C14.8272 15.0818 15.9418 13.8188 18.2884 13.8188H18.8164V15.6545L17.9951 15.6692Z" fill="#ACFD00"/>
<path d="M10.9112 13.7601C10.0313 13.7601 9.37131 14.1125 8.91667 14.8468V11.6895H8.71135C7.83139 11.7041 7.36208 12.1741 7.14209 12.5559V17.8426C7.14209 19.9573 8.24204 20.9999 10.4273 20.9853C12.5978 20.9412 13.6978 19.7664 13.6978 17.4314C13.7124 15.0524 12.7885 13.8335 10.9112 13.7601ZM10.3979 19.502C9.38598 19.502 8.91667 18.7825 8.93134 17.358C8.99 16.0069 9.47397 15.3461 10.4273 15.3461C11.3805 15.3461 11.8792 16.0069 11.9085 17.358C11.9085 18.7825 11.4099 19.502 10.3979 19.502Z" fill="#ACFD00"/>
<path d="M0 20.9999V12.8349C0 12.5705 0.54264 11.7041 1.30527 11.7041H1.75991V20.9999H0Z" fill="#ACFD00"/>
<path d="M53.736 4.44959C53.56 3.99434 53.3106 3.59784 53.0027 3.27476C52.68 2.95168 52.2987 2.70203 51.8441 2.52581C51.3894 2.34959 50.8908 2.26147 50.3335 2.26147C49.7762 2.26147 49.2775 2.34959 48.8229 2.52581C48.3682 2.70203 47.9869 2.95168 47.6789 3.27476C47.3563 3.59784 47.107 3.99434 46.9456 4.44959C46.7696 4.90483 46.6816 5.41882 46.6816 5.99154C46.6816 6.56427 46.7696 7.07826 46.9456 7.5335C47.1216 7.98875 47.3709 8.38525 47.6789 8.70833C48.0016 9.0314 48.3829 9.28105 48.8229 9.45728C49.2775 9.6335 49.7762 9.72161 50.3335 9.72161C50.8908 9.72161 51.3894 9.6335 51.8441 9.45728C52.2987 9.28105 52.68 9.0314 53.0027 8.70833C53.3253 8.38525 53.5746 7.98875 53.736 7.5335C53.912 7.07826 54 6.56427 54 5.99154C54 5.41882 53.912 4.91952 53.736 4.44959ZM51.976 6.82861C51.9174 7.09294 51.8294 7.34259 51.6974 7.54819C51.5654 7.76847 51.3894 7.93001 51.1694 8.06217C50.9494 8.19434 50.6708 8.25308 50.3335 8.25308C50.0108 8.25308 49.7322 8.19434 49.5122 8.06217C49.2922 7.93001 49.1162 7.76847 48.9842 7.54819C48.8522 7.32791 48.7642 7.09294 48.7055 6.82861C48.6469 6.56427 48.6175 6.28525 48.6175 5.99154C48.6175 5.71252 48.6469 5.4335 48.7055 5.15448C48.7642 4.87546 48.8522 4.6405 48.9842 4.42022C49.1162 4.21462 49.2922 4.0384 49.5122 3.90623C49.7322 3.77406 50.0108 3.70064 50.3335 3.70064C50.6561 3.70064 50.9348 3.75938 51.1694 3.90623C51.3894 4.0384 51.5654 4.21462 51.6974 4.42022C51.8294 4.62581 51.9174 4.87546 51.976 5.15448C52.0347 5.4335 52.064 5.71252 52.064 5.99154C52.0494 6.28525 52.02 6.56427 51.976 6.82861Z" fill="#ACFD00"/>
<path d="M27.5571 3.71539C27.2491 3.71539 26.9851 3.78882 26.7798 3.92099C26.5744 4.06784 26.3984 4.24407 26.2665 4.46434C26.1345 4.68462 26.0465 4.93427 25.9878 5.19861C25.9291 5.46295 25.8998 5.74197 25.8998 6.0063C25.8998 6.25595 25.9291 6.52029 25.9878 6.78462C26.0465 7.04896 26.1345 7.28392 26.2518 7.5042C26.3691 7.72448 26.5451 7.90071 26.7504 8.03288C26.9558 8.16504 27.2197 8.23847 27.5131 8.23847C27.9824 8.23847 28.3344 8.1063 28.5837 7.84197C28.833 7.57763 28.9943 7.22518 29.053 6.79931H30.9302C30.7982 7.73917 30.4316 8.45875 29.8303 8.95805C29.229 9.45735 28.4517 9.69232 27.5131 9.69232C26.9851 9.69232 26.5011 9.6042 26.0611 9.42798C25.6212 9.25176 25.2398 9.00211 24.9319 8.67903C24.6239 8.35595 24.3745 7.97413 24.1986 7.53357C24.0226 7.09302 23.9346 6.6084 23.9346 6.07973C23.9346 5.53637 24.0079 5.02239 24.1692 4.55246C24.3306 4.08253 24.5652 3.67134 24.8732 3.33358C25.1812 2.99581 25.5625 2.71679 26.0171 2.52588C26.4718 2.33498 26.9704 2.23218 27.5571 2.23218C27.9824 2.23218 28.3784 2.29092 28.7743 2.39372C29.1556 2.49651 29.5076 2.67274 29.8156 2.89302C30.1236 3.1133 30.3729 3.39232 30.5636 3.73008C30.7542 4.06784 30.8716 4.46434 30.8862 4.91959H28.9797C28.8623 4.12658 28.3783 3.71539 27.5571 3.71539Z" fill="#ACFD00"/>
<path d="M18.1273 4.90476C17.9953 4.40546 17.79 3.9649 17.5113 3.56839C17.2327 3.17189 16.866 2.8635 16.426 2.64322C15.9861 2.40825 15.4581 2.29077 14.8715 2.29077C14.3435 2.29077 13.8448 2.37888 13.4195 2.56979C12.9796 2.7607 12.5982 3.02504 12.2903 3.34811C11.9676 3.68588 11.7329 4.06769 11.557 4.52294C11.381 4.97818 11.293 5.4628 11.293 5.99147C11.293 6.53483 11.381 7.03413 11.5423 7.48937C11.7036 7.94462 11.9529 8.32644 12.2609 8.6642C12.5689 8.98727 12.9502 9.23692 13.3902 9.41315C13.8302 9.58937 14.3288 9.67748 14.8861 9.67748C15.6781 9.67748 16.3527 9.50126 16.9247 9.13413C17.482 8.76699 17.9073 8.1649 18.1713 7.32783H16.47C16.4114 7.54811 16.2354 7.75371 15.9567 7.94462C15.6781 8.13553 15.3408 8.23832 14.9595 8.23832C14.4168 8.23832 14.0062 8.09147 13.7128 7.81245C13.4195 7.53343 13.2582 7.07818 13.2435 6.4614H18.3033C18.2886 5.91804 18.2446 5.40406 18.1273 4.90476ZM13.1995 5.24252C13.2142 5.11035 13.2435 4.94881 13.2875 4.78727C13.3315 4.61105 13.4195 4.44951 13.5515 4.30266C13.6689 4.15581 13.8302 4.02364 14.0355 3.92084C14.2408 3.81804 14.4901 3.7593 14.7981 3.7593C15.2674 3.7593 15.6194 3.89147 15.8541 4.14112C16.0887 4.39077 16.2501 4.77259 16.3381 5.2572H13.1995V5.24252Z" fill="#ACFD00"/>
<path d="M43.7486 0.690132V1.14538V3.43629C43.2939 2.68734 42.5899 2.3202 41.6953 2.3202C39.7741 2.39363 38.8208 3.64188 38.8208 6.09433C38.8208 8.48803 39.9354 9.70691 42.1646 9.75097C44.4085 9.76566 45.5378 8.69363 45.5378 6.5202V0.0146076C45.5378 0.0146076 44.3205 -0.161616 43.7486 0.690132ZM42.194 8.19433C41.1674 8.19433 40.6687 7.46006 40.6834 6.00622C40.742 4.61111 41.2407 3.93559 42.2233 3.93559C43.2059 3.93559 43.7046 4.61111 43.7486 6.00622C43.7339 7.46006 43.2206 8.19433 42.194 8.19433Z" fill="#ACFD00"/>
<path d="M34.7438 2.24683C32.6906 2.24683 31.9866 3.172 31.928 4.56711H33.6146C33.7026 4.22934 33.9812 3.71536 34.8318 3.73004C35.5798 3.74473 35.9611 3.93564 36.0051 4.34683C36.0051 4.74333 35.6091 4.97829 34.8318 5.06641C33.0133 5.24263 31.752 5.71256 31.7227 7.43074C31.7227 9.03144 32.9253 9.82445 34.6412 9.69228C36.5917 9.56011 37.7797 8.66431 37.7797 6.68179V4.24403C37.7357 2.90767 36.7237 2.24683 34.7438 2.24683ZM36.0198 6.60836C36.0198 7.63634 35.4038 8.22375 34.4065 8.22375C33.8345 8.22375 33.5412 7.94473 33.4972 7.38669C33.4972 6.85802 33.8639 6.52025 34.5825 6.3734C35.1105 6.2706 35.6091 6.19718 36.0198 6.02095V6.60836Z" fill="#ACFD00"/>
<path d="M22.6294 4.21476C21.6175 4.21476 21.1482 4.86091 21.1482 5.91825V9.66301H19.3149V5.93294C19.3736 3.59797 20.5175 2.30566 22.9228 2.30566H23.4654V4.18538L22.6294 4.21476Z" fill="#ACFD00"/>
<path d="M9.50353 9.66301C8.90223 9.61895 8.60891 9.33993 8.60891 8.7672V5.05182C8.56491 4.30287 8.15426 3.93573 7.3623 3.93573C6.57034 3.93573 6.14503 4.30287 6.14503 5.05182V9.63364H4.31179V5.02245C4.26779 4.2735 3.85714 3.90636 3.06518 3.90636C2.25856 3.90636 1.84791 4.2735 1.83324 5.02245V9.63364H0V5.38958C0 3.33364 1.02662 2.30566 3.09451 2.30566C4.01847 2.30566 4.72243 2.51126 5.25041 2.92245C5.76372 2.52594 6.46768 2.33503 7.4063 2.33503C9.45953 2.33503 10.4861 3.36301 10.4715 5.41895V9.66301H9.50353Z" fill="#ACFD00"/>
</svg>
