<svg width="13" height="14" viewBox="0 0 13 14" fill="none" xmlns="http://www.w3.org/2000/svg">
<path d="M12.7969 7.125C12.7969 3.67188 9.95312 0.828125 6.5 0.828125C3.02148 0.828125 0.203125 3.67188 0.203125 7.125C0.203125 10.6035 3.02148 13.4219 6.5 13.4219C9.95312 13.4219 12.7969 10.6035 12.7969 7.125ZM5.76367 10.4766C5.61133 10.6289 5.33203 10.6289 5.17969 10.4766L2.53906 7.83594C2.38672 7.68359 2.38672 7.4043 2.53906 7.25195L3.12305 6.69336C3.27539 6.51562 3.5293 6.51562 3.68164 6.69336L5.48438 8.4707L9.29297 4.66211C9.44531 4.48438 9.69922 4.48438 9.85156 4.66211L10.4355 5.2207C10.5879 5.37305 10.5879 5.65234 10.4355 5.80469L5.76367 10.4766Z" fill="#ACFD00"/>
</svg>
