<svg width="32" height="21" viewBox="0 0 32 21" fill="none" xmlns="http://www.w3.org/2000/svg">
<path d="M21.25 0H10.75C4.89844 0 0.25 4.70312 0.25 10.5C0.25 16.3516 4.89844 21 10.75 21H21.25C27.0469 21 31.75 16.3516 31.75 10.5C31.75 4.70312 27.0469 0 21.25 0ZM3.75 10.5C3.75 6.67188 6.86719 3.5 10.75 3.5C14.5781 3.5 17.75 6.67188 17.75 10.5C17.75 14.3828 14.5781 17.5 10.75 17.5C6.86719 17.5 3.75 14.3828 3.75 10.5ZM21.25 17.5H18.5703C22.125 13.5625 22.125 7.49219 18.5703 3.5H21.25C25.0781 3.5 28.25 6.67188 28.25 10.5C28.25 14.3828 25.0781 17.5 21.25 17.5Z" fill="#666666"/>
</svg>
