<svg width="23" height="18" viewBox="0 0 23 18" fill="none" xmlns="http://www.w3.org/2000/svg">
<path d="M11.5 13.4062C8.97656 13.4062 6.91797 11.4805 6.75195 8.99023L3.26562 6.30078C2.80078 6.89844 2.36914 7.49609 2.03711 8.16016C1.9707 8.29297 1.9375 8.45898 1.9375 8.625C1.9375 8.82422 1.9707 8.99023 2.03711 9.12305C3.83008 12.6426 7.41602 15 11.5 15C12.3633 15 13.2266 14.8672 14.0566 14.668L12.3633 13.3398C12.0645 13.4062 11.7656 13.4062 11.5 13.4062ZM21.8926 15.3652L18.2402 12.5098C19.3359 11.5801 20.2656 10.418 20.9297 9.12305C20.9961 8.99023 21.0293 8.82422 21.0293 8.6582C21.0293 8.45898 20.9961 8.29297 20.9297 8.16016C19.1367 4.64062 15.5508 2.25 11.5 2.25C9.70703 2.2832 8.04688 2.71484 6.58594 3.51172L2.36914 0.257812C2.26953 0.191406 2.16992 0.158203 2.03711 0.158203C1.87109 0.158203 1.70508 0.224609 1.63867 0.357422L0.974609 1.1875C0.908203 1.28711 0.875 1.38672 0.875 1.51953C0.875 1.68555 0.941406 1.81836 1.07422 1.91797L20.5977 17.0254C20.6973 17.0918 20.7969 17.125 20.9297 17.125C21.0957 17.125 21.2617 17.0586 21.3613 16.9258L21.9922 16.0957C22.0586 15.9961 22.0918 15.8965 22.0918 15.7637C22.0918 15.5977 22.0254 15.4648 21.8926 15.3652ZM15.8164 10.6504L14.4883 9.62109C14.6211 9.32227 14.6543 8.99023 14.6875 8.625C14.6875 8.625 14.6875 8.625 14.6875 8.5918C14.6875 6.86523 13.2598 5.4375 11.5332 5.4375C11.2344 5.4375 10.9355 5.50391 10.6367 5.57031C10.8359 5.83594 10.9355 6.16797 10.9688 6.5C10.9355 6.63281 10.9355 6.73242 10.9023 6.83203L8.44531 4.97266C9.27539 4.27539 10.3379 3.87695 11.5 3.84375C14.123 3.84375 16.2812 6.00195 16.2812 8.625C16.2812 9.35547 16.082 10.0195 15.8164 10.6504Z" fill="#999999"/>
</svg>
