<svg width="16" height="14" viewBox="0 0 16 14" fill="none" xmlns="http://www.w3.org/2000/svg">
<path id="&#239;&#135;&#158;" d="M14.6112 10.757H4.76746V10.2882C4.76746 10.0538 4.53309 9.81946 4.29871 9.81946H3.36121C3.09754 9.81946 2.89246 10.0538 2.89246 10.2882V10.757H0.548712C0.28504 10.757 0.0799618 10.9913 0.0799618 11.2257V12.1632C0.0799618 12.4269 0.28504 12.632 0.548712 12.632H2.89246V13.1007C2.89246 13.3644 3.09754 13.5695 3.36121 13.5695H4.29871C4.53309 13.5695 4.76746 13.3644 4.76746 13.1007V12.632H14.6112C14.8456 12.632 15.08 12.4269 15.08 12.1632V11.2257C15.08 10.9913 14.8456 10.757 14.6112 10.757ZM14.6112 6.06946H12.2675V5.60071C12.2675 5.36633 12.0331 5.13196 11.7987 5.13196H10.8612C10.5975 5.13196 10.3925 5.36633 10.3925 5.60071V6.06946H0.548712C0.28504 6.06946 0.0799618 6.30383 0.0799618 6.53821V7.47571C0.0799618 7.73938 0.28504 7.94446 0.548712 7.94446H10.3925V8.41321C10.3925 8.67688 10.5975 8.88196 10.8612 8.88196H11.7987C12.0331 8.88196 12.2675 8.67688 12.2675 8.41321V7.94446H14.6112C14.8456 7.94446 15.08 7.73938 15.08 7.47571V6.53821C15.08 6.30383 14.8456 6.06946 14.6112 6.06946ZM14.6112 1.38196H8.51746V0.913208C8.51746 0.678833 8.28309 0.444458 8.04871 0.444458H7.11121C6.84754 0.444458 6.64246 0.678833 6.64246 0.913208V1.38196H0.548712C0.28504 1.38196 0.0799618 1.61633 0.0799618 1.85071V2.78821C0.0799618 3.05188 0.28504 3.25696 0.548712 3.25696H6.64246V3.72571C6.64246 3.98938 6.84754 4.19446 7.11121 4.19446H8.04871C8.28309 4.19446 8.51746 3.98938 8.51746 3.72571V3.25696H14.6112C14.8456 3.25696 15.08 3.05188 15.08 2.78821V1.85071C15.08 1.61633 14.8456 1.38196 14.6112 1.38196Z" fill="#777777"/>
</svg>
