<svg width="16" height="16" viewBox="0 0 16 16" fill="none" xmlns="http://www.w3.org/2000/svg">
<path id="&#239;&#128;&#130;" d="M14.8749 13.8535L11.9452 10.9238C11.7987 10.8066 11.6229 10.7188 11.4471 10.7188H10.9784C11.7694 9.69336 12.2675 8.4043 12.2675 6.96875C12.2675 3.62891 9.51356 0.875 6.17371 0.875C2.80457 0.875 0.0799618 3.62891 0.0799618 6.96875C0.0799618 10.3379 2.80457 13.0625 6.17371 13.0625C7.57996 13.0625 8.86902 12.5938 9.92371 11.7734V12.2715C9.92371 12.4473 9.98231 12.623 10.1288 12.7695L13.0292 15.6699C13.3221 15.9629 13.7616 15.9629 14.0253 15.6699L14.8456 14.8496C15.1386 14.5859 15.1386 14.1465 14.8749 13.8535ZM6.17371 10.7188C4.09363 10.7188 2.42371 9.04883 2.42371 6.96875C2.42371 4.91797 4.09363 3.21875 6.17371 3.21875C8.22449 3.21875 9.92371 4.91797 9.92371 6.96875C9.92371 9.04883 8.22449 10.7188 6.17371 10.7188Z" fill="#777777"/>
</svg>
