<svg width="15" height="16" viewBox="0 0 15 16" fill="none" xmlns="http://www.w3.org/2000/svg">
<path id="&#239;&#128;&#145;" d="M11.7987 2.11829C11.4471 1.85461 10.9784 1.9718 10.7733 2.32336L10.3046 3.14368C10.1288 3.46594 10.2167 3.8468 10.4804 4.05188C11.7694 5.01868 12.4725 6.48352 12.5018 7.97766C12.5018 10.7609 10.246 12.9288 7.57996 12.9288C4.82606 12.9288 2.62879 10.7316 2.65809 8.00696C2.65809 6.39563 3.41981 4.96008 4.65027 4.05188C4.91395 3.8468 5.00184 3.46594 4.82606 3.14368L4.35731 2.32336C4.15223 1.9718 3.68348 1.85461 3.33191 2.11829C1.48621 3.43665 0.28504 5.60461 0.314337 8.03625C0.314337 12.0206 3.59559 15.3019 7.57996 15.2726C11.5936 15.2726 14.8456 12.0206 14.8456 8.00696C14.8456 5.57532 13.6444 3.43665 11.7987 2.11829ZM8.75184 8.24133V1.21008C8.75184 0.829224 8.42957 0.506958 8.04871 0.506958H7.11121C6.70106 0.506958 6.40809 0.829224 6.40809 1.21008V8.24133C6.40809 8.65149 6.70106 8.94446 7.11121 8.94446H8.04871C8.42957 8.94446 8.75184 8.65149 8.75184 8.24133Z" fill="#999999"/>
</svg>
