<svg width="14" height="16" viewBox="0 0 14 16" fill="none" xmlns="http://www.w3.org/2000/svg">
<path id="&#239;&#135;&#160;" d="M10.33 10.25C9.65613 10.25 9.0409 10.4844 8.57215 10.8652L5.55457 8.99023C5.61316 8.81445 5.61316 8.60938 5.61316 8.375C5.61316 8.16992 5.61316 7.96484 5.55457 7.78906L8.57215 5.91406C9.0409 6.29492 9.65613 6.5 10.33 6.5C11.8827 6.5 13.1425 5.26953 13.1425 3.6875C13.1425 2.13477 11.8827 0.875 10.33 0.875C8.74793 0.875 7.51746 2.13477 7.51746 3.6875C7.51746 3.92188 7.51746 4.12695 7.57606 4.30273L4.55848 6.17773C4.08973 5.79688 3.47449 5.5625 2.82996 5.5625C1.24793 5.5625 0.0174618 6.82227 0.0174618 8.375C0.0174618 9.95703 1.24793 11.1875 2.82996 11.1875C3.47449 11.1875 4.08973 10.9824 4.55848 10.6016L7.57606 12.4766C7.51746 12.6523 7.51746 12.8574 7.51746 13.0918V13.0625C7.51746 14.6445 8.74793 15.875 10.33 15.875C11.8827 15.875 13.1425 14.6445 13.1425 13.0625C13.1425 11.5098 11.8827 10.25 10.33 10.25Z" fill="#777777"/>
</svg>
