<svg width="15" height="15" viewBox="0 0 15 15" fill="none" xmlns="http://www.w3.org/2000/svg">
<path id="&#239;&#135;&#142;" d="M8.51746 1.04688V1.51562C8.51746 1.83789 8.72254 2.10156 9.01551 2.18945C11.3007 2.83398 12.9706 4.91406 12.9706 7.375C12.9706 10.3633 10.5389 12.7656 7.57996 12.7656C4.59168 12.7656 2.18934 10.3633 2.18934 7.375C2.18934 4.91406 3.82996 2.83398 6.11512 2.18945C6.40809 2.10156 6.64246 1.83789 6.64246 1.51562V1.04688C6.64246 0.578125 6.20301 0.226562 5.73426 0.34375C2.59949 1.16406 0.28504 4.03516 0.314337 7.43359C0.314337 11.4473 3.56629 14.6699 7.57996 14.6406C11.5936 14.6406 14.8456 11.3887 14.8456 7.375C14.8456 4.00586 12.5018 1.16406 9.36707 0.34375C8.92762 0.226562 8.51746 0.578125 8.51746 1.04688Z" fill="#ACFD00"/>
</svg>
