<svg width="20" height="18" viewBox="0 0 20 18" fill="none" xmlns="http://www.w3.org/2000/svg">
<path id="&#239;&#132;&#161;" d="M8.70414 17.9817C8.92272 18.052 9.11007 17.9114 9.17252 17.7005L13.4504 1.17835C13.5129 0.932279 13.388 0.686205 13.2006 0.651051L11.2959 0.0182889C11.0773 -0.052018 10.8899 0.0885958 10.8275 0.299517L6.54957 16.8216C6.48712 17.0677 6.61202 17.2786 6.79938 17.3489L8.70414 17.9817ZM5.14442 14.0445L6.51834 12.3923C6.67447 12.2165 6.64325 11.9705 6.48712 11.7947L3.67682 8.98242L6.48712 6.2053C6.64325 6.02953 6.67447 5.7483 6.51834 5.60769L5.14442 3.95548C5.01952 3.77971 4.76971 3.77971 4.61358 3.95548L0.117096 8.7012C-0.039032 8.84181 -0.039032 9.12304 0.117096 9.2988L4.61358 14.0445C4.76971 14.2203 5.01952 14.2203 5.14442 14.0445ZM15.3864 14.0445L19.8829 9.2988C20.039 9.15819 20.039 8.84181 19.8829 8.7012L15.3864 3.95548C15.2303 3.77971 14.9805 3.77971 14.8556 3.95548L13.4817 5.57254C13.3568 5.7483 13.3568 6.02953 13.5129 6.2053L16.3544 8.98242L13.5129 11.7947C13.3568 11.9705 13.3255 12.2165 13.4817 12.3923L14.8556 14.0445C14.9805 14.2203 15.2303 14.2203 15.3864 14.0445Z" fill="#777777"/>
</svg>
