<svg width="19" height="16" viewBox="0 0 19 16" fill="none" xmlns="http://www.w3.org/2000/svg">
<path id="&#239;&#149;&#142;" d="M18.1932 4.36133L16.2889 1.31445C16.1132 1.05078 15.8202 0.875 15.4979 0.875H3.66199C3.33973 0.875 3.01746 1.05078 2.84168 1.31445L0.966681 4.36133C-0.0294132 5.94336 0.849493 8.11133 2.6659 8.3457C2.81238 8.375 2.92957 8.375 3.07606 8.375C3.95496 8.375 4.71668 7.99414 5.24402 7.4082C5.77137 7.99414 6.53309 8.375 7.41199 8.375C8.2616 8.375 9.02332 7.99414 9.55066 7.4082C10.078 7.99414 10.869 8.375 11.7186 8.375C12.5975 8.375 13.3593 7.99414 13.8866 7.4082C14.4139 7.99414 15.1757 8.375 16.0546 8.375C16.2011 8.375 16.3182 8.375 16.4647 8.3457C18.2811 8.11133 19.16 5.94336 18.1932 4.36133ZM16.0546 9.3125C15.7616 9.3125 15.4686 9.2832 15.205 9.22461V12.125H3.95496V9.22461C3.66199 9.2832 3.36902 9.3125 3.07606 9.3125C2.90027 9.3125 2.72449 9.3125 2.54871 9.2832C2.37293 9.25391 2.22645 9.22461 2.07996 9.19531V14.9375C2.07996 15.4648 2.49012 15.875 3.01746 15.875H16.1425C16.6405 15.875 17.08 15.4648 17.08 14.9375V9.19531C16.9042 9.22461 16.7577 9.2832 16.5819 9.2832C16.4061 9.3125 16.2304 9.3125 16.0546 9.3125Z" fill="#777777"/>
</svg>
