<svg width="14" height="16" viewBox="0 0 14 16" fill="none" xmlns="http://www.w3.org/2000/svg">
<path id="&#239;&#128;&#135;" d="M6.57996 8.375C8.63074 8.375 10.33 6.70508 10.33 4.625C10.33 2.57422 8.63074 0.875 6.57996 0.875C4.49988 0.875 2.82996 2.57422 2.82996 4.625C2.82996 6.70508 4.49988 8.375 6.57996 8.375ZM9.18738 9.3125H8.68934C8.04481 9.63477 7.34168 9.78125 6.57996 9.78125C5.81824 9.78125 5.08582 9.63477 4.44129 9.3125H3.94324C1.77527 9.3125 0.0174618 11.0996 0.0174618 13.2676V14.4688C0.0174618 15.2598 0.632696 15.875 1.42371 15.875H11.7362C12.4979 15.875 13.1425 15.2598 13.1425 14.4688V13.2676C13.1425 11.0996 11.3554 9.3125 9.18738 9.3125Z" fill="#777777"/>
</svg>
