<svg width="16" height="16" viewBox="0 0 16 16" fill="none" xmlns="http://www.w3.org/2000/svg">
<path id="&#239;&#130;&#163;" d="M13.4979 8.323L14.8456 7.00464C15.2557 6.62378 15.0507 5.94995 14.5233 5.83276L12.7069 5.36401L13.205 3.54761C13.3514 3.02026 12.8827 2.52222 12.3554 2.6687L10.5389 3.19604L10.0702 1.35034C9.95301 0.852295 9.24988 0.647217 8.86902 1.05737L7.57996 2.40503L6.2616 1.05737C5.88074 0.647217 5.17762 0.822998 5.06043 1.35034L4.59168 3.19604L2.77527 2.6687C2.24793 2.52222 1.77918 3.02026 1.92566 3.54761L2.42371 5.36401L0.607306 5.83276C0.0799618 5.94995 -0.125116 6.62378 0.28504 7.00464L1.6327 8.323L0.28504 9.64136C-0.125116 10.0222 0.0799618 10.696 0.607306 10.8425L2.42371 11.3113L1.92566 13.1277C1.77918 13.655 2.24793 14.1238 2.77527 13.9773L4.59168 13.4792L5.06043 15.2957C5.20691 15.8523 5.88074 15.9988 6.2616 15.6179L7.57996 14.2703L8.86902 15.6179C9.24988 16.0281 9.92371 15.8523 10.0702 15.2957L10.5389 13.4792L12.3554 13.9773C12.8827 14.1238 13.3514 13.655 13.205 13.1277L12.7069 11.3113L14.5233 10.8425C15.0507 10.696 15.2557 10.0222 14.8456 9.64136L13.4979 8.323Z" fill="#777777"/>
</svg>
