<svg width="15" height="16" viewBox="0 0 15 16" fill="none" xmlns="http://www.w3.org/2000/svg">
<path id="&#239;&#128;&#147;" d="M14.3475 9.76477L13.0878 9.06165C13.2343 8.35852 13.2343 7.68469 13.0878 6.98157L14.3475 6.27844C14.494 6.19055 14.5526 6.01477 14.494 5.86829C14.1718 4.8136 13.6151 3.8761 12.912 3.08508C12.7948 2.9679 12.619 2.9386 12.4725 3.02649L11.2128 3.72961C10.6854 3.29016 10.0995 2.9386 9.45496 2.70422V1.26868C9.45496 1.12219 9.33777 0.975708 9.16199 0.946411C8.07801 0.682739 6.99402 0.712036 5.96863 0.946411C5.79285 0.975708 5.70496 1.12219 5.70496 1.26868V2.70422C5.03113 2.9386 4.4452 3.29016 3.91785 3.75891L2.65809 3.02649C2.5116 2.9386 2.33582 2.9679 2.21863 3.08508C1.51551 3.8761 0.958868 4.8136 0.636602 5.86829C0.578009 6.01477 0.636602 6.19055 0.783087 6.27844L2.04285 6.98157C1.92566 7.68469 1.92566 8.35852 2.04285 9.06165L0.783087 9.76477C0.636602 9.85266 0.578009 10.0284 0.636602 10.1749C0.958868 11.2296 1.51551 12.1671 2.21863 12.9581C2.33582 13.0753 2.5116 13.1046 2.65809 13.0167L3.91785 12.3136C4.4452 12.7531 5.03113 13.1046 5.70496 13.339V14.7745C5.70496 14.921 5.82215 15.0675 5.96863 15.1261C7.05262 15.3605 8.1366 15.3312 9.16199 15.1261C9.33777 15.0675 9.45496 14.921 9.45496 14.7745V13.339C10.0995 13.1046 10.6854 12.7531 11.2128 12.3136L12.4725 13.0167C12.619 13.1046 12.7948 13.0753 12.912 12.9581C13.6444 12.1671 14.1718 11.2296 14.5233 10.1749C14.5526 10.0284 14.494 9.85266 14.3475 9.76477ZM7.57996 10.3507C6.2616 10.3507 5.23621 9.32532 5.23621 8.00696C5.23621 6.7179 6.2616 5.66321 7.57996 5.66321C8.86902 5.66321 9.92371 6.7179 9.92371 8.00696C9.92371 9.32532 8.86902 10.3507 7.57996 10.3507Z" fill="#777777"/>
</svg>
