<svg width="15" height="16" viewBox="0 0 15 16" fill="none" xmlns="http://www.w3.org/2000/svg">
<path d="M14.7949 13.8535C14.9316 13.9902 15 14.1563 15 14.3516C15 14.5469 14.9316 14.7129 14.7949 14.8496L13.9746 15.6699C13.8379 15.8066 13.6719 15.875 13.4766 15.875C13.2813 15.875 13.1152 15.8066 12.9785 15.6699L10.0488 12.7402C9.91211 12.6035 9.84375 12.4375 9.84375 12.2422V11.7734C8.75 12.6328 7.5 13.0625 6.09375 13.0625C4.41406 13.0625 2.97852 12.4668 1.78711 11.2754C0.595703 10.084 0 8.64844 0 6.96875C0 5.28906 0.595703 3.85351 1.78711 2.66211C2.97852 1.4707 4.41406 0.874999 6.09375 0.874999C7.77344 0.874999 9.20898 1.4707 10.4004 2.66211C11.5918 3.85351 12.1875 5.28906 12.1875 6.96875C12.1875 8.375 11.7578 9.625 10.8984 10.7187H11.3672C11.5625 10.7187 11.7285 10.7871 11.8652 10.9238L14.7949 13.8535ZM3.42773 9.63477C4.16992 10.3574 5.05859 10.7187 6.09375 10.7187C7.12891 10.7187 8.00781 10.3574 8.73047 9.63477C9.47266 8.89258 9.84375 8.00391 9.84375 6.96875C9.84375 5.93359 9.47266 5.05469 8.73047 4.33203C8.00781 3.58984 7.12891 3.21875 6.09375 3.21875C5.05859 3.21875 4.16992 3.58984 3.42773 4.33203C2.70508 5.05469 2.34375 5.93359 2.34375 6.96875C2.34375 8.00391 2.70508 8.89258 3.42773 9.63477Z" fill="#555555"/>
</svg>
