<svg width="17" height="19" viewBox="0 0 17 19" fill="none" xmlns="http://www.w3.org/2000/svg">
<path d="M15.1428 3.26113L10.5653 0.566796C9.27833 -0.188932 7.72167 -0.188932 6.43472 0.566796L1.87262 3.25292C0.716682 3.9265 0 5.22438 0 6.62905V11.722C0 13.3485 0.824569 14.8435 2.16546 15.6239L7.35947 18.6796C8.06845 19.0986 8.93155 19.0986 9.64053 18.6796L14.8345 15.6239C16.1677 14.8353 17 13.3402 17 11.722V6.60441C17 5.21617 16.291 3.93472 15.1428 3.26113ZM15.0966 7.70514L10.2493 16.2646C10.0644 16.5932 9.80236 16.856 9.50181 17.0367C9.20127 17.2175 8.85449 17.316 8.5 17.316C7.78332 17.316 7.12058 16.9135 6.75068 16.2646L1.90345 7.70514C1.51043 7.01513 1.51043 6.1444 1.90345 5.45439L1.93427 5.39689C2.30417 4.74795 2.96691 4.35365 3.68359 4.35365H13.3164C14.0331 4.35365 14.6958 4.75616 15.0657 5.4051L15.0966 5.4626C15.4896 6.15262 15.4896 7.01513 15.0966 7.70514Z" fill="#A3A3A3"/>
<path d="M11.1433 6.76867H5.85677C5.71035 6.76867 5.59476 6.89189 5.59476 7.04796V7.35189C5.59476 7.50797 5.71035 7.63119 5.85677 7.63119H7.70627C7.91434 7.63119 8.07617 7.8119 8.07617 8.02548V14.1452C8.07617 14.3013 8.19176 14.4245 8.33818 14.4245H8.65414C8.80056 14.4245 8.91615 14.3013 8.91615 14.1452V8.03369C8.91615 7.8119 9.08569 7.6394 9.28605 7.6394H11.1433C11.2897 7.6394 11.4053 7.51618 11.4053 7.36011V7.05617C11.4053 6.9001 11.2897 6.76867 11.1433 6.76867Z" fill="#A3A3A3"/>
</svg>
