<svg width="26" height="29" viewBox="0 0 26 29" fill="none" xmlns="http://www.w3.org/2000/svg">
<path d="M23.1596 4.97752L16.1587 0.86511C14.1904 -0.28837 11.8096 -0.28837 9.84134 0.86511L2.86401 4.96498C1.0961 5.99308 0 7.97406 0 10.118V17.8915C0 20.374 1.26111 22.6559 3.31188 23.8469L11.2557 28.511C12.34 29.1504 13.66 29.1504 14.7443 28.511L22.6881 23.8469C24.7271 22.6433 26 20.3614 26 17.8915V10.0804C26 7.96152 24.9157 6.00562 23.1596 4.97752ZM23.0888 11.7605L15.6754 24.8249C15.3926 25.3264 14.9918 25.7276 14.5322 26.0035C14.0725 26.2793 13.5422 26.4297 13 26.4297C11.9039 26.4297 10.8903 25.8154 10.3246 24.8249L2.91115 11.7605C2.31006 10.7073 2.31006 9.3783 2.91115 8.32512L2.9583 8.23735C3.52403 7.24686 4.53762 6.64505 5.63373 6.64505H20.3663C21.4624 6.64505 22.476 7.2594 23.0417 8.24989L23.0888 8.33766C23.6899 9.39083 23.6899 10.7073 23.0888 11.7605Z" fill="#888888"/>
<path d="M17.0426 10.3311H8.95737C8.73343 10.3311 8.55664 10.5191 8.55664 10.7574V11.2213C8.55664 11.4595 8.73343 11.6475 8.95737 11.6475H11.786C12.1042 11.6475 12.3517 11.9234 12.3517 12.2494V21.59C12.3517 21.8283 12.5285 22.0163 12.7525 22.0163H13.2357C13.4596 22.0163 13.6364 21.8283 13.6364 21.59V12.2619C13.6364 11.9234 13.8957 11.6601 14.2022 11.6601H17.0426C17.2665 11.6601 17.4433 11.472 17.4433 11.2338V10.7699C17.4433 10.5317 17.2665 10.3311 17.0426 10.3311Z" fill="#888888"/>
</svg>
