<svg width="47" height="44" viewBox="0 0 47 44" fill="none" xmlns="http://www.w3.org/2000/svg">
<ellipse cx="23.5225" cy="22" rx="23.1068" ry="22" fill="#2C2C2C"/>
<path d="M26.4471 24.5C25.6385 24.5 24.9002 24.7812 24.3377 25.2383L20.7166 22.9883C20.7869 22.7773 20.7869 22.5312 20.7869 22.25C20.7869 22.0039 20.7869 21.7578 20.7166 21.5469L24.3377 19.2969C24.9002 19.7539 25.6385 20 26.4471 20C28.3103 20 29.8221 18.5234 29.8221 16.625C29.8221 14.7617 28.3103 13.25 26.4471 13.25C24.5486 13.25 23.0721 14.7617 23.0721 16.625C23.0721 16.9062 23.0721 17.1523 23.1424 17.3633L19.5213 19.6133C18.9588 19.1562 18.2205 18.875 17.4471 18.875C15.5486 18.875 14.0721 20.3867 14.0721 22.25C14.0721 24.1484 15.5486 25.625 17.4471 25.625C18.2205 25.625 18.9588 25.3789 19.5213 24.9219L23.1424 27.1719C23.0721 27.3828 23.0721 27.6289 23.0721 27.9102V27.875C23.0721 29.7734 24.5486 31.25 26.4471 31.25C28.3103 31.25 29.8221 29.7734 29.8221 27.875C29.8221 26.0117 28.3103 24.5 26.4471 24.5Z" fill="#ACFD00"/>
</svg>
