<svg width="29" height="31" viewBox="0 0 29 31" fill="none" xmlns="http://www.w3.org/2000/svg">
<path d="M25.8318 5.32079L18.0231 0.924773C15.8277 -0.308258 13.1723 -0.308258 10.9769 0.924773L3.19447 5.30739C1.22257 6.4064 0 8.52399 0 10.8158V19.1254C0 21.7791 1.40662 24.2183 3.69402 25.4916L12.5544 30.4773C13.7638 31.1608 15.2362 31.1608 16.4456 30.4773L25.306 25.4916C27.5802 24.2049 29 21.7657 29 19.1254V10.7756C29 8.51059 27.7906 6.4198 25.8318 5.32079ZM25.7529 12.5716L17.4841 26.537C17.1686 27.0731 16.7217 27.5019 16.209 27.7968C15.6963 28.0917 15.1047 28.2525 14.5 28.2525C13.2774 28.2525 12.1469 27.5958 11.5159 26.537L3.24705 12.5716C2.57661 11.4457 2.57661 10.0251 3.24705 8.89926L3.29964 8.80545C3.93064 7.74665 5.0612 7.10333 6.28377 7.10333H22.7162C23.9388 7.10333 25.0694 7.76005 25.7004 8.81885L25.7529 8.91267C26.4234 10.0385 26.4234 11.4457 25.7529 12.5716Z" fill="#ACFD00"/>
<path d="M19.009 11.0437H9.99091C9.74114 11.0437 9.54395 11.2447 9.54395 11.4994V11.9952C9.54395 12.2499 9.74114 12.4509 9.99091 12.4509H13.1459C13.5009 12.4509 13.7769 12.7458 13.7769 13.0942V23.0791C13.7769 23.3338 13.9741 23.5348 14.2239 23.5348H14.7629C15.0127 23.5348 15.2099 23.3338 15.2099 23.0791V13.1077C15.2099 12.7458 15.4991 12.4643 15.8409 12.4643H19.009C19.2588 12.4643 19.456 12.2633 19.456 12.0086V11.5128C19.456 11.2581 19.2588 11.0437 19.009 11.0437Z" fill="#ACFD00"/>
</svg>
