<svg width="16" height="19" viewBox="0 0 16 19" fill="none" xmlns="http://www.w3.org/2000/svg">
<path d="M12.4471 11.5C11.6385 11.5 10.9002 11.7812 10.3377 12.2383L6.71659 9.98828C6.7869 9.77734 6.7869 9.53125 6.7869 9.25C6.7869 9.00391 6.7869 8.75781 6.71659 8.54688L10.3377 6.29688C10.9002 6.75391 11.6385 7 12.4471 7C14.3103 7 15.8221 5.52344 15.8221 3.625C15.8221 1.76172 14.3103 0.25 12.4471 0.25C10.5486 0.25 9.07206 1.76172 9.07206 3.625C9.07206 3.90625 9.07206 4.15234 9.14237 4.36328L5.52127 6.61328C4.95877 6.15625 4.22049 5.875 3.44706 5.875C1.54862 5.875 0.0720558 7.38672 0.0720558 9.25C0.0720558 11.1484 1.54862 12.625 3.44706 12.625C4.22049 12.625 4.95877 12.3789 5.52127 11.9219L9.14237 14.1719C9.07206 14.3828 9.07206 14.6289 9.07206 14.9102V14.875C9.07206 16.7734 10.5486 18.25 12.4471 18.25C14.3103 18.25 15.8221 16.7734 15.8221 14.875C15.8221 13.0117 14.3103 11.5 12.4471 11.5Z" fill="#ACFD00"/>
</svg>
