<svg width="17" height="18" viewBox="0 0 17 18" fill="none" xmlns="http://www.w3.org/2000/svg">
<path d="M15.1428 3.08949L10.5653 0.536965C9.27833 -0.178988 7.72167 -0.178988 6.43472 0.536965L1.87262 3.08171C0.716682 3.71984 0 4.94942 0 6.28015V11.1051C0 12.6459 0.824569 14.0623 2.16546 14.8016L7.35947 17.6965C8.06845 18.0934 8.93155 18.0934 9.64053 17.6965L14.8345 14.8016C16.1677 14.0545 17 12.6381 17 11.1051V6.25681C17 4.94163 16.291 3.72763 15.1428 3.08949ZM15.0966 7.29961L10.2493 15.4086C10.0644 15.7198 9.80236 15.9689 9.50181 16.1401C9.20127 16.3113 8.85449 16.4047 8.5 16.4047C7.78332 16.4047 7.12058 16.0233 6.75068 15.4086L1.90345 7.29961C1.51043 6.64591 1.51043 5.82101 1.90345 5.16731L1.93427 5.11284C2.30417 4.49805 2.96691 4.12451 3.68359 4.12451H13.3164C14.0331 4.12451 14.6958 4.50584 15.0657 5.12062L15.0966 5.1751C15.4896 5.82879 15.4896 6.64591 15.0966 7.29961Z" fill="#ACFD00"/>
<path d="M11.1432 6.41245H5.85674C5.71032 6.41245 5.59473 6.52918 5.59473 6.67704V6.96497C5.59473 7.11283 5.71032 7.22957 5.85674 7.22957H7.70624C7.91431 7.22957 8.07614 7.40077 8.07614 7.60311V13.4008C8.07614 13.5486 8.19173 13.6654 8.33815 13.6654H8.65411C8.80053 13.6654 8.91612 13.5486 8.91612 13.4008V7.61089C8.91612 7.40077 9.08566 7.23735 9.28602 7.23735H11.1432C11.2897 7.23735 11.4052 7.12062 11.4052 6.97276V6.68482C11.4052 6.53696 11.2897 6.41245 11.1432 6.41245Z" fill="#ACFD00"/>
</svg>
