<svg width="18" height="18" viewBox="0 0 18 18" fill="none" xmlns="http://www.w3.org/2000/svg">
<path d="M17.1016 7.5625H16.0723C15.6074 4.47461 13.1504 2.01758 10.0625 1.55273V0.523438C10.0625 0.324219 9.86328 0.125 9.66406 0.125H8.33594C8.10352 0.125 7.9375 0.324219 7.9375 0.523438V1.55273C4.81641 2.01758 2.35938 4.47461 1.89453 7.5625H0.898438C0.666016 7.5625 0.5 7.76172 0.5 7.96094V9.28906C0.5 9.52148 0.666016 9.6875 0.898438 9.6875H1.89453C2.35938 12.8086 4.81641 15.2656 7.9375 15.7305V16.7266C7.9375 16.959 8.10352 17.125 8.33594 17.125H9.66406C9.86328 17.125 10.0625 16.959 10.0625 16.7266V15.7305C13.1504 15.2656 15.6074 12.8086 16.0723 9.6875H17.1016C17.3008 9.6875 17.5 9.52148 17.5 9.28906V7.96094C17.5 7.76172 17.3008 7.5625 17.1016 7.5625ZM10.0625 13.5723V12.2109C10.0625 12.0117 9.86328 11.8125 9.66406 11.8125H8.33594C8.10352 11.8125 7.9375 12.0117 7.9375 12.2109V13.5723C5.97852 13.1738 4.45117 11.6465 4.05273 9.6875H5.41406C5.61328 9.6875 5.8125 9.52148 5.8125 9.28906V7.96094C5.8125 7.76172 5.61328 7.5625 5.41406 7.5625H4.05273C4.45117 5.63672 5.97852 4.10938 7.9375 3.71094V5.03906C7.9375 5.27148 8.10352 5.4375 8.33594 5.4375H9.66406C9.86328 5.4375 10.0625 5.27148 10.0625 5.03906V3.71094C11.9883 4.10938 13.5156 5.63672 13.9141 7.5625H12.5859C12.3535 7.5625 12.1875 7.76172 12.1875 7.96094V9.28906C12.1875 9.52148 12.3535 9.6875 12.5859 9.6875H13.9141C13.5156 11.6465 11.9883 13.1738 10.0625 13.5723ZM10.0625 8.625C10.0625 8.06055 9.56445 7.5625 9 7.5625C8.40234 7.5625 7.9375 8.06055 7.9375 8.625C7.9375 9.22266 8.40234 9.6875 9 9.6875C9.56445 9.6875 10.0625 9.22266 10.0625 8.625Z" fill="#ACFD00"/>
</svg>
