<svg width="10" height="14" viewBox="0 0 10 14" fill="none" xmlns="http://www.w3.org/2000/svg">
<path d="M4.49219 13.3711C4.7207 13.7266 5.25391 13.7266 5.48242 13.3711C9.18945 8.03906 9.875 7.48047 9.875 5.5C9.875 2.80859 7.69141 0.625 5 0.625C2.2832 0.625 0.125 2.80859 0.125 5.5C0.125 7.48047 0.785156 8.03906 4.49219 13.3711ZM5 7.53125C3.85742 7.53125 2.96875 6.64258 2.96875 5.5C2.96875 4.38281 3.85742 3.46875 5 3.46875C6.11719 3.46875 7.03125 4.38281 7.03125 5.5C7.03125 6.64258 6.11719 7.53125 5 7.53125Z" fill="#999999"/>
</svg>
