<svg width="16" height="16" viewBox="0 0 16 16" fill="none" xmlns="http://www.w3.org/2000/svg">
<path d="M15.2949 13.8535L12.3652 10.9238C12.2188 10.8066 12.043 10.7188 11.8672 10.7188H11.3984C12.1895 9.69336 12.6875 8.4043 12.6875 6.96875C12.6875 3.62891 9.93359 0.875 6.59375 0.875C3.22461 0.875 0.5 3.62891 0.5 6.96875C0.5 10.3379 3.22461 13.0625 6.59375 13.0625C8 13.0625 9.28906 12.5938 10.3438 11.7734V12.2715C10.3438 12.4473 10.4023 12.623 10.5488 12.7695L13.4492 15.6699C13.7422 15.9629 14.1816 15.9629 14.4453 15.6699L15.2656 14.8496C15.5586 14.5859 15.5586 14.1465 15.2949 13.8535ZM6.59375 10.7188C4.51367 10.7188 2.84375 9.04883 2.84375 6.96875C2.84375 4.91797 4.51367 3.21875 6.59375 3.21875C8.64453 3.21875 10.3438 4.91797 10.3438 6.96875C10.3438 9.04883 8.64453 10.7188 6.59375 10.7188Z" fill="#777777"/>
</svg>
