<svg width="354" height="317" viewBox="0 0 354 317" fill="none" xmlns="http://www.w3.org/2000/svg">
<rect x="252.258" y="0.107788" width="52.3627" height="53.3696" rx="20.7754" fill="#AAFF00"/>
<rect y="109.384" width="50.086" height="51.0492" rx="19.8721" fill="white"/>
<rect x="309.483" y="192.339" width="44.3944" height="45.2482" rx="17.6139" fill="#3F3F3F"/>
<rect x="100.861" y="274.443" width="40.9795" height="42.1178" rx="14.4524" fill="#AAFF00"/>
<path d="M322.807 205.907L327.196 204.892C327.661 204.766 328.167 205.019 328.378 205.484L330.404 210.217C330.573 210.64 330.446 211.105 330.109 211.401L327.534 213.514C329.054 216.726 331.713 219.43 335.005 220.994L337.115 218.416C337.41 218.078 337.875 217.951 338.297 218.12L343.024 220.149C343.488 220.36 343.699 220.867 343.615 221.332L342.602 225.727C342.475 226.192 342.095 226.488 341.589 226.488C330.784 226.488 322.005 217.74 322.005 206.879C322.005 206.414 322.343 206.033 322.807 205.907Z" fill="#DCD8D3"/>
<path d="M291.503 14.7007H267.092C265.508 14.7007 264.276 16.0286 264.276 17.5979V34.9805C264.276 36.6102 265.508 37.8777 267.092 37.8777H291.503C293.029 37.8777 294.32 36.6102 294.32 34.9805V17.5979C294.32 16.0286 293.029 14.7007 291.503 14.7007ZM291.503 17.5979V20.0725C290.154 21.2193 288.041 22.9092 283.581 26.5306C282.584 27.3153 280.647 29.2467 279.298 29.1863C277.889 29.2467 275.953 27.3153 274.955 26.5306C270.496 22.9092 268.383 21.2193 267.092 20.0725V17.5979H291.503ZM267.092 34.9805V23.8146C268.383 24.901 270.32 26.4703 273.195 28.8242C274.486 29.8502 276.774 32.1438 279.298 32.0834C281.762 32.1438 283.992 29.8502 285.342 28.8242C288.217 26.4703 290.154 24.901 291.503 23.8146V34.9805H267.092Z" fill="#0E0E0E"/>
<path d="M23.9758 149.693C24.456 150.47 25.5766 150.47 26.0568 149.693C33.8471 138.032 35.2878 136.811 35.2878 132.479C35.2878 126.594 30.699 121.818 25.043 121.818C19.3336 121.818 14.7981 126.594 14.7981 132.479C14.7981 136.811 16.1854 138.032 23.9758 149.693ZM25.043 136.922C22.6418 136.922 20.7743 134.978 20.7743 132.479C20.7743 130.036 22.6418 128.037 25.043 128.037C27.3907 128.037 29.3117 130.036 29.3117 132.479C29.3117 134.978 27.3907 136.922 25.043 136.922Z" fill="#0E0E0E"/>
<path d="M115.934 306.316H111.444V291.881H115.934V306.316ZM113.713 289.902C113.005 289.902 112.394 289.644 111.879 289.129C111.364 288.614 111.106 288.003 111.106 287.295C111.106 286.587 111.364 285.975 111.879 285.46C112.394 284.945 113.005 284.688 113.713 284.688C114.164 284.688 114.582 284.8 114.969 285.026C115.387 285.251 115.709 285.573 115.934 285.991C116.192 286.377 116.32 286.812 116.32 287.295C116.32 287.745 116.192 288.18 115.934 288.598C115.709 288.984 115.387 289.306 114.969 289.564C114.582 289.789 114.164 289.902 113.713 289.902ZM132.735 306.316H128.245V299.267C128.245 298.72 128.229 298.286 128.196 297.964C128.164 297.61 128.084 297.224 127.955 296.805C127.826 296.355 127.585 296.017 127.231 295.791C126.909 295.566 126.475 295.453 125.927 295.453C124.865 295.453 124.141 295.791 123.755 296.467C123.401 297.143 123.224 298.044 123.224 299.171V306.316H118.734V291.881H123.079V293.86H123.127C123.449 293.217 123.98 292.67 124.721 292.219C125.461 291.736 126.346 291.495 127.376 291.495C128.47 291.495 129.371 291.672 130.079 292.026C130.82 292.348 131.367 292.847 131.721 293.522C132.107 294.166 132.364 294.874 132.493 295.647C132.654 296.419 132.735 297.336 132.735 298.398V306.316Z" fill="#0E0E0E"/>
</svg>
