<svg width="21" height="24" viewBox="0 0 21 24" fill="none" xmlns="http://www.w3.org/2000/svg">
<path d="M16.25 15.25C15.2168 15.25 14.2734 15.6094 13.5547 16.1934L8.92773 13.3184C9.01758 13.0488 9.01758 12.7344 9.01758 12.375C9.01758 12.0605 9.01758 11.7461 8.92773 11.4766L13.5547 8.60156C14.2734 9.18555 15.2168 9.5 16.25 9.5C18.6309 9.5 20.5625 7.61328 20.5625 5.1875C20.5625 2.80664 18.6309 0.875 16.25 0.875C13.8242 0.875 11.9375 2.80664 11.9375 5.1875C11.9375 5.54688 11.9375 5.86133 12.0273 6.13086L7.40039 9.00586C6.68164 8.42188 5.73828 8.0625 4.75 8.0625C2.32422 8.0625 0.4375 9.99414 0.4375 12.375C0.4375 14.8008 2.32422 16.6875 4.75 16.6875C5.73828 16.6875 6.68164 16.373 7.40039 15.7891L12.0273 18.6641C11.9375 18.9336 11.9375 19.248 11.9375 19.6074V19.5625C11.9375 21.9883 13.8242 23.875 16.25 23.875C18.6309 23.875 20.5625 21.9883 20.5625 19.5625C20.5625 17.1816 18.6309 15.25 16.25 15.25Z" fill="#ACFD00"/>
</svg>
