<svg width="14" height="13" viewBox="0 0 14 13" fill="none" xmlns="http://www.w3.org/2000/svg">
<path d="M9.32031 6.25L12.8359 2.73438C13.293 2.3125 13.293 1.60938 12.8359 1.1875L12.0625 0.414062C11.6406 -0.0429688 10.9375 -0.0429688 10.5156 0.414062L7 3.92969L3.44922 0.414062C3.02734 -0.0429688 2.32422 -0.0429688 1.90234 0.414062L1.12891 1.1875C0.671875 1.60938 0.671875 2.3125 1.12891 2.73438L4.64453 6.25L1.12891 9.80078C0.671875 10.2227 0.671875 10.9258 1.12891 11.3477L1.90234 12.1211C2.32422 12.5781 3.02734 12.5781 3.44922 12.1211L7 8.60547L10.5156 12.1211C10.9375 12.5781 11.6406 12.5781 12.0625 12.1211L12.8359 11.3477C13.293 10.9258 13.293 10.2227 12.8359 9.80078L9.32031 6.25Z" fill="#E94342"/>
</svg>
