<svg width="15" height="11" viewBox="0 0 15 11" fill="none" xmlns="http://www.w3.org/2000/svg">
<path d="M13.3523 10.6362H1.82957C1.46025 10.6362 1.14633 10.507 0.887806 10.2484C0.629283 9.98992 0.500022 9.676 0.500022 9.30669V1.32941C0.500022 0.960094 0.629283 0.646174 0.887806 0.387651C1.14633 0.129128 1.46025 -0.000133038 1.82957 -0.000133038H13.3523C13.7216 -0.000133038 14.0355 0.129128 14.2941 0.387651C14.5526 0.646174 14.6818 0.960094 14.6818 1.32941V9.30669C14.6818 9.676 14.5526 9.98992 14.2941 10.2484C14.0355 10.507 13.7216 10.6362 13.3523 10.6362ZM4.68255 2.02188C4.3871 1.70796 4.02701 1.551 3.60229 1.551C3.17758 1.551 2.80826 1.70796 2.49434 2.02188C2.19889 2.31734 2.05116 2.67742 2.05116 3.10214C2.05116 3.52686 2.19889 3.89617 2.49434 4.21009C2.80826 4.50555 3.17758 4.65328 3.60229 4.65328C4.02701 4.65328 4.3871 4.50555 4.68255 4.21009C4.99647 3.89617 5.15343 3.52686 5.15343 3.10214C5.15343 2.67742 4.99647 2.31734 4.68255 2.02188ZM2.27275 8.8635H12.9091V5.76123L10.4716 3.32373C10.3239 3.176 10.1762 3.176 10.0284 3.32373L6.26139 7.09078L4.71025 5.53964C4.56252 5.39191 4.41479 5.39191 4.26707 5.53964L2.27275 7.53396V8.8635Z" fill="#D5D5D5"/>
</svg>
