<svg width="22" height="22" viewBox="0 0 22 22" fill="none" xmlns="http://www.w3.org/2000/svg">
<path d="M5.09586 9.73271H1.78612C1.20691 9.73271 0.793194 10.1878 0.793194 10.7256V20.6549C0.793194 21.2341 1.20691 21.6478 1.78612 21.6478H5.09586C5.6337 21.6478 6.08879 21.2341 6.08879 20.6549V10.7256C6.08879 10.1878 5.6337 9.73271 5.09586 9.73271ZM3.44099 19.9929C2.86178 19.9929 2.44807 19.5792 2.44807 19C2.44807 18.4622 2.86178 18.0071 3.44099 18.0071C3.97882 18.0071 4.43391 18.4622 4.43391 19C4.43391 19.5792 3.97882 19.9929 3.44099 19.9929ZM16.68 3.85791C16.68 0.796398 14.6941 0.465424 13.7012 0.465424C12.8324 0.465424 12.46 2.1203 12.2946 2.86499C12.0463 3.77517 11.8395 4.68535 11.2189 5.30593C9.89499 6.6712 9.19167 8.36744 7.5368 9.98094C7.45406 10.1051 7.41269 10.2292 7.41269 10.3533V19.2069C7.41269 19.4551 7.61954 19.6619 7.86778 19.7033C8.52972 19.7033 9.39853 20.0757 10.0605 20.3653C11.3844 20.9445 12.9979 21.6478 14.9837 21.6478H15.1078C16.8868 21.6478 18.9968 21.6478 19.8242 20.448C20.1966 19.9516 20.2793 19.331 20.0725 18.5863C20.7758 17.883 21.1068 16.5591 20.7758 15.4834C21.4791 14.5318 21.5618 13.1666 21.1481 12.215C21.6446 11.7186 21.9756 10.9325 21.9342 10.1878C21.9342 8.90528 20.8585 7.74686 19.4933 7.74686H15.2733C15.6043 6.58845 16.68 5.59553 16.68 3.85791Z" fill="#777777"/>
</svg>
