<svg width="21" height="24" viewBox="0 0 21 24" fill="none" xmlns="http://www.w3.org/2000/svg">
<path d="M14.4392 16.1334C16.0319 16.1334 17.3842 16.6935 18.496 17.8138C19.638 18.9046 20.2089 20.2313 20.2089 21.7938C20.2089 22.1771 20.0587 22.5014 19.7582 22.7667C19.4877 23.0615 19.1572 23.2089 18.7665 23.2089H1.45732C1.06667 23.2089 0.721082 23.0615 0.420576 22.7667C0.15012 22.5014 0.0148926 22.1771 0.0148926 21.7938C0.0148926 20.2313 0.57083 18.9046 1.6827 17.8138C2.82463 16.6935 4.19193 16.1334 5.78462 16.1334H6.82136C7.87314 16.6051 8.96998 16.8409 10.1119 16.8409C11.2538 16.8409 12.3507 16.6051 13.4025 16.1334H14.4392ZM2.67437 10.296C2.55417 10.414 2.38889 10.4729 2.17854 10.4729C1.96818 10.4729 1.78788 10.414 1.63763 10.296C1.51742 10.1486 1.45732 9.97174 1.45732 9.76537V9.05781C1.45732 6.72877 2.29874 4.73877 3.98158 3.08781C5.69446 1.40736 7.73791 0.567139 10.1119 0.567139C12.4859 0.567139 14.5143 1.40736 16.1972 3.08781C17.91 4.73877 18.7665 6.72877 18.7665 9.05781V9.76537C18.7665 11.1215 18.2707 12.286 17.279 13.2589C16.2873 14.2318 15.1003 14.7183 13.718 14.7183H9.39069C9.00003 14.7183 8.65445 14.5856 8.35394 14.3203C8.08349 14.0254 7.94826 13.6864 7.94826 13.3031C7.94826 12.9199 8.08349 12.5956 8.35394 12.3303C8.65445 12.0354 9.00003 11.888 9.39069 11.888H10.8331C11.2238 11.888 11.5543 12.0354 11.8248 12.3303C12.1253 12.5956 12.2756 12.9199 12.2756 13.3031H13.718C14.7097 13.3031 15.5511 12.9641 16.2422 12.286C16.9635 11.5785 17.3241 10.7383 17.3241 9.76537V9.05781C17.3241 7.11203 16.6179 5.44633 15.2055 4.0607C13.7931 2.67507 12.0952 1.98225 10.1119 1.98225C8.12856 1.98225 6.4307 2.67507 5.01832 4.0607C3.60594 5.44633 2.89975 7.11203 2.89975 9.05781V9.76537C2.89975 9.97174 2.82463 10.1486 2.67437 10.296ZM9.39069 10.4729C8.60938 10.4729 7.93324 10.753 7.36227 11.3131C6.79131 11.8733 6.50583 12.5366 6.50583 13.3031C6.50583 13.3326 6.50583 13.3621 6.50583 13.3916C6.50583 13.4211 6.50583 13.4358 6.50583 13.4358C5.0634 12.3155 4.34219 10.8562 4.34219 9.05781C4.34219 7.49529 4.89812 6.16862 6.00999 5.07781C7.15192 3.95751 8.51922 3.39736 10.1119 3.39736C11.7046 3.39736 13.0569 3.95751 14.1687 5.07781C15.3107 6.16862 15.8816 7.49529 15.8816 9.05781V9.76537C15.8816 10.355 15.6713 10.8562 15.2506 11.2689C14.8299 11.6817 14.319 11.888 13.718 11.888H13.3123C13.1019 11.5048 12.7413 11.1805 12.2305 10.9151C11.7497 10.6203 11.2839 10.4729 10.8331 10.4729H9.39069Z" fill="#ACFD00"/>
</svg>
