<svg width="23" height="23" viewBox="0 0 23 23" fill="none" xmlns="http://www.w3.org/2000/svg">
<path d="M5.48964 22.0934H0.943728V7.47806H5.48964V22.0934ZM3.24112 5.47395C2.52421 5.47395 1.90505 5.21325 1.38366 4.69186C0.86226 4.17046 0.601562 3.5513 0.601562 2.83439C0.601562 2.11747 0.86226 1.49831 1.38366 0.976917C1.90505 0.455522 2.52421 0.194824 3.24112 0.194824C3.69735 0.194824 4.12098 0.308879 4.51203 0.53699C4.93566 0.7651 5.26153 1.09097 5.48964 1.51461C5.75034 1.90565 5.88069 2.34558 5.88069 2.83439C5.88069 3.29061 5.75034 3.73053 5.48964 4.15417C5.26153 4.54521 4.93566 4.87109 4.51203 5.13178C4.12098 5.35989 3.69735 5.47395 3.24112 5.47395ZM22.5002 22.0934H17.9542V14.9568C17.9542 14.4028 17.9379 13.9629 17.9054 13.637C17.8728 13.2786 17.7913 12.8875 17.661 12.4639C17.5306 12.0077 17.2862 11.6655 16.9277 11.4374C16.6019 11.2093 16.1619 11.0952 15.608 11.0952C14.5326 11.0952 13.7994 11.4374 13.4083 12.1217C13.0499 12.8061 12.8706 13.7185 12.8706 14.8591V22.0934H8.32473V7.47806H12.724V9.48217H12.7729C13.0988 8.83043 13.6364 8.27645 14.3859 7.82023C15.1354 7.33142 16.0316 7.08702 17.0744 7.08702C18.1824 7.08702 19.0948 7.26624 19.8117 7.6247C20.5612 7.95058 21.1152 8.45568 21.4737 9.14001C21.8647 9.79175 22.1254 10.5087 22.2558 11.2908C22.4187 12.0729 22.5002 13.0016 22.5002 14.077V22.0934Z" fill="#0E0E0E"/>
</svg>
