<svg width="28" height="24" viewBox="0 0 28 24" fill="none" xmlns="http://www.w3.org/2000/svg">
<path d="M1.8125 4.48438H26.1875C26.6562 4.48438 27.125 4.07422 27.125 3.54688V1.20312C27.125 0.734375 26.6562 0.265625 26.1875 0.265625H1.8125C1.28516 0.265625 0.875 0.734375 0.875 1.20312V3.54688C0.875 4.07422 1.28516 4.48438 1.8125 4.48438ZM1.8125 13.8594H26.1875C26.6562 13.8594 27.125 13.4492 27.125 12.9219V10.5781C27.125 10.1094 26.6562 9.64062 26.1875 9.64062H1.8125C1.28516 9.64062 0.875 10.1094 0.875 10.5781V12.9219C0.875 13.4492 1.28516 13.8594 1.8125 13.8594ZM1.8125 23.2344H26.1875C26.6562 23.2344 27.125 22.8242 27.125 22.2969V19.9531C27.125 19.4844 26.6562 19.0156 26.1875 19.0156H1.8125C1.28516 19.0156 0.875 19.4844 0.875 19.9531V22.2969C0.875 22.8242 1.28516 23.2344 1.8125 23.2344Z" fill="white"/>
</svg>
