<svg width="33" height="35" viewBox="0 0 33 35" fill="none" xmlns="http://www.w3.org/2000/svg">
<path d="M29.3948 6.00735L20.5091 1.0441C18.0109 -0.348033 14.9891 -0.348033 12.4909 1.0441L3.63509 5.99222C1.39121 7.23303 0 9.62386 0 12.2114V21.5932C0 24.5893 1.60063 27.3433 4.20354 28.7808L14.286 34.4099C15.6623 35.1816 17.3377 35.1816 18.714 34.4099L28.7965 28.7808C31.3844 27.3281 33 24.5741 33 21.5932V12.166C33 9.60873 31.6238 7.24816 29.3948 6.00735ZM29.3051 14.1937L19.8957 29.9611C19.5367 30.5664 19.0281 31.0506 18.4447 31.3835C17.8613 31.7164 17.1881 31.898 16.5 31.898C15.1088 31.898 13.8223 31.1565 13.1043 29.9611L3.69492 14.1937C2.932 12.9226 2.932 11.3186 3.69492 10.0476L3.75476 9.94163C4.4728 8.74622 5.75929 8.01989 7.1505 8.01989H25.8495C27.2407 8.01989 28.5272 8.76135 29.2452 9.95677L29.3051 10.0627C30.068 11.3338 30.068 12.9226 29.3051 14.1937Z" fill="#ACFD00"/>
<path d="M21.631 12.4686H11.369C11.0847 12.4686 10.8604 12.6956 10.8604 12.9831V13.543C10.8604 13.8305 11.0847 14.0575 11.369 14.0575H14.9592C15.3631 14.0575 15.6772 14.3904 15.6772 14.7838V26.057C15.6772 26.3445 15.9016 26.5715 16.1858 26.5715H16.7992C17.0834 26.5715 17.3078 26.3445 17.3078 26.057V14.7989C17.3078 14.3904 17.6369 14.0726 18.0258 14.0726H21.631C21.9152 14.0726 22.1396 13.8456 22.1396 13.5581V12.9982C22.1396 12.7107 21.9152 12.4686 21.631 12.4686Z" fill="#ACFD00"/>
</svg>
