<svg width="14" height="15" viewBox="0 0 14 15" fill="none" xmlns="http://www.w3.org/2000/svg">
<path d="M9.57812 7.5L13.4844 3.59375C13.9922 3.125 13.9922 2.34375 13.4844 1.875L12.625 1.01562C12.1562 0.507812 11.375 0.507812 10.9062 1.01562L7 4.92188L3.05469 1.01562C2.58594 0.507812 1.80469 0.507812 1.33594 1.01562L0.476562 1.875C-0.03125 2.34375 -0.03125 3.125 0.476562 3.59375L4.38281 7.5L0.476562 11.4453C-0.03125 11.9141 -0.03125 12.6953 0.476562 13.1641L1.33594 14.0234C1.80469 14.5312 2.58594 14.5312 3.05469 14.0234L7 10.1172L10.9062 14.0234C11.375 14.5312 12.1562 14.5312 12.625 14.0234L13.4844 13.1641C13.9922 12.6953 13.9922 11.9141 13.4844 11.4453L9.57812 7.5Z" fill="#777777"/>
</svg>
