<svg width="45" height="13" viewBox="0 0 45 13" fill="none" xmlns="http://www.w3.org/2000/svg">
<g clip-path="url(#clip0)">
<path d="M24.4691 1.08832H23.6943C23.3715 1.08832 23.1133 1.33018 23.1133 1.6325V3.08367V9.25111C23.1133 11.3674 24.5337 12.9395 26.7933 12.9395H28.2137C28.5365 12.9395 28.7948 12.6976 28.7948 12.3953V11.9116C28.7948 11.6093 28.5365 11.3674 28.2137 11.3674H28.1492H27.0516C25.5667 11.3674 25.0502 10.4604 24.9856 8.58599V4.77669H28.1492C28.472 4.77669 28.7302 4.53483 28.7302 4.2325V3.68832C28.7302 3.38599 28.472 3.14413 28.1492 3.14413H24.9856V1.69297C24.9856 1.39064 24.7919 1.14878 24.4691 1.08832C24.5337 1.08832 24.5337 1.08832 24.4691 1.08832Z" fill="#ACFD00"/>
<path d="M41.5137 3.0837H40.5453C39.4477 3.02324 38.4147 3.44649 37.7045 4.23254C36.9944 3.44649 35.9614 3.02324 34.8638 3.0837H33.8954C31.5066 3.0837 30.0862 4.77672 30.0862 6.893V12.3349C30.0862 12.6372 30.3444 12.8791 30.6672 12.8791H31.442C31.7648 12.8791 32.0231 12.6372 32.0231 12.3349V7.19533C32.0231 5.8651 32.6687 4.71626 34.3473 4.71626C36.0259 4.71626 36.607 5.8651 36.607 7.19533V12.3349C36.607 12.6372 36.8652 12.8791 37.188 12.8791H37.9628C38.2856 12.8791 38.5439 12.6372 38.5439 12.3349V7.19533C38.5439 5.8651 39.1895 4.71626 40.8681 4.71626C42.5467 4.71626 43.1278 5.8651 43.1278 7.19533V12.3349C43.1278 12.6372 43.386 12.8791 43.7088 12.8791H44.419C44.7418 12.8791 45.0001 12.6372 45.0001 12.3349V6.893C45.2583 4.77672 43.838 3.0837 41.5137 3.0837Z" fill="#ACFD00"/>
<path d="M20.079 3.08368C17.6901 3.08368 16.2698 4.7767 16.2698 6.89298V12.3348C16.2698 12.6372 16.528 12.879 16.8508 12.879H17.6256C17.9484 12.879 18.2066 12.6372 18.2066 12.3348V7.19531C18.2066 5.86507 18.8523 4.71624 20.5309 4.71624H21.3056C21.6285 4.71624 21.8867 4.47438 21.8867 4.17205V3.68833C21.8867 3.386 21.6285 3.14414 21.3056 3.14414L20.079 3.08368Z" fill="#ACFD00"/>
<path d="M13.9455 2.05581H13.0416C12.7188 2.05581 12.396 1.75349 12.396 1.45116V0.604651C12.396 0.302326 12.7188 0 13.0416 0H13.9455C14.2683 0 14.5911 0.302326 14.5911 0.604651V1.45116C14.5911 1.75349 14.2683 2.05581 13.9455 2.05581Z" fill="#ACFD00"/>
<path d="M10.3299 5.98609C9.16782 3.44656 6.00426 2.23726 3.29264 3.32563C0.581021 4.414 -0.710228 7.37679 0.451896 9.91633C1.29121 11.7907 3.22808 13 5.4232 13H7.03726C7.36007 13 7.61832 12.8791 7.61832 12.5163V11.8512C7.61832 11.5489 7.29551 11.3675 7.03726 11.3675H5.48776C3.61545 11.2466 2.06596 9.85586 2.00139 8.04191C1.93683 6.28842 3.42177 4.77679 5.35864 4.71633C5.4232 4.71633 5.4232 4.71633 5.48776 4.71633C6.64989 4.71633 7.74745 5.26051 8.39307 6.16749C8.71589 6.71168 8.90957 7.25586 8.90957 7.92098V12.3954C8.90957 12.6977 9.16782 12.9396 9.49063 12.9396H10.2008C10.5236 12.9396 10.7819 12.6977 10.7819 12.3954V7.92098C10.7819 7.25586 10.5882 6.59075 10.3299 5.98609Z" fill="#ACFD00"/>
<path d="M13.1061 12.9396H13.8163C14.1391 12.9396 14.3973 12.6978 14.3973 12.3955V3.68847C14.3973 3.38615 14.1391 3.14429 13.8163 3.14429H13.0415C12.7187 3.14429 12.4604 3.38615 12.4604 3.68847V12.3955C12.4604 12.6978 12.7833 12.9396 13.1061 12.9396Z" fill="#ACFD00"/>
</g>
<defs>
<clipPath id="clip0">
<rect width="45" height="13" fill="white"/>
</clipPath>
</defs>
</svg>
