<svg width="54" height="22" viewBox="0 0 54 22" fill="none" xmlns="http://www.w3.org/2000/svg">
<path d="M5.41177 11.6892H3.65186V13.3046H5.41177V11.6892Z" fill="#ACFD00"/>
<path d="M5.41177 14.1124H3.65186V20.9998H5.41177V14.1124Z" fill="#ACFD00"/>
<path d="M25.944 16.3446C25.8267 15.86 25.6214 15.4195 25.3427 15.0523C25.0641 14.6705 24.7121 14.3768 24.2721 14.1418C23.8468 13.9216 23.3335 13.8041 22.7468 13.8041C22.2335 13.8041 21.7496 13.8922 21.3242 14.0831C20.8989 14.274 20.5323 14.5237 20.2243 14.8467C19.9163 15.1698 19.6817 15.5516 19.5057 15.9922C19.3443 16.4327 19.2563 16.9174 19.2563 17.4167C19.2563 17.9453 19.3443 18.4299 19.5057 18.8705C19.667 19.3111 19.9016 19.6929 20.195 20.016C20.4883 20.339 20.8549 20.574 21.2949 20.7502C21.7202 20.9264 22.2189 21.0146 22.7468 21.0146C23.5241 21.0146 24.1841 20.8383 24.7267 20.4859C25.2694 20.1334 25.68 19.546 25.944 18.7237H24.2868C24.2281 18.9292 24.0521 19.1348 23.7881 19.3258C23.5095 19.5167 23.1868 19.6048 22.8055 19.6048C22.2775 19.6048 21.8669 19.4726 21.5882 19.1936C21.3096 18.9146 21.1483 18.474 21.1189 17.8719H26.0467C26.1053 17.3432 26.0613 16.8292 25.944 16.3446ZM21.1336 16.6824C21.1483 16.5502 21.1776 16.4034 21.2216 16.2272C21.2656 16.0656 21.3536 15.9041 21.4709 15.7572C21.5882 15.6104 21.7496 15.4782 21.9402 15.3754C22.1455 15.2726 22.3949 15.2286 22.6882 15.2286C23.1428 15.2286 23.4948 15.346 23.7148 15.5957C23.9348 15.8453 24.0961 16.2125 24.1841 16.6824H21.1336Z" fill="#ACFD00"/>
<path d="M17.9951 15.669C17.0124 15.669 16.5578 16.3004 16.5578 17.3284V20.985H14.7686V17.3578C14.8272 15.0815 15.9418 13.8186 18.2884 13.8186H18.8164V15.6543L17.9951 15.669Z" fill="#ACFD00"/>
<path d="M10.9115 13.7598C10.0315 13.7598 9.37156 14.1123 8.91691 14.8466V11.6892H8.71159C7.83163 11.7039 7.36232 12.1738 7.14233 12.5556V17.8424C7.14233 19.957 8.24228 20.9997 10.4275 20.985C12.5981 20.941 13.698 19.7661 13.698 17.4312C13.7127 15.0521 12.7887 13.8333 10.9115 13.7598ZM10.3982 19.5018C9.38622 19.5018 8.91691 18.7822 8.93158 17.3577C8.99024 16.0067 9.47422 15.3459 10.4275 15.3459C11.3808 15.3459 11.8794 16.0067 11.9088 17.3577C11.9088 18.7822 11.4101 19.5018 10.3982 19.5018Z" fill="#ACFD00"/>
<path d="M0 20.9997V12.8346C0 12.5703 0.54264 11.7039 1.30527 11.7039H1.75991V20.9997H0Z" fill="#ACFD00"/>
<path d="M53.736 4.44946C53.56 3.99422 53.3106 3.59772 53.0027 3.27464C52.68 2.95156 52.2987 2.70191 51.8441 2.52569C51.3894 2.34946 50.8908 2.26135 50.3335 2.26135C49.7762 2.26135 49.2775 2.34946 48.8229 2.52569C48.3682 2.70191 47.9869 2.95156 47.6789 3.27464C47.3563 3.59772 47.107 3.99422 46.9456 4.44946C46.7696 4.90471 46.6816 5.41869 46.6816 5.99142C46.6816 6.56415 46.7696 7.07814 46.9456 7.53338C47.1216 7.98863 47.3709 8.38513 47.6789 8.70821C48.0016 9.03128 48.3829 9.28093 48.8229 9.45716C49.2775 9.63338 49.7762 9.72149 50.3335 9.72149C50.8908 9.72149 51.3894 9.63338 51.8441 9.45716C52.2987 9.28093 52.68 9.03128 53.0027 8.70821C53.3253 8.38513 53.5746 7.98863 53.736 7.53338C53.912 7.07814 54 6.56415 54 5.99142C54 5.41869 53.912 4.91939 53.736 4.44946ZM51.976 6.82849C51.9174 7.09282 51.8294 7.34247 51.6974 7.54807C51.5654 7.76834 51.3894 7.92988 51.1694 8.06205C50.9494 8.19422 50.6708 8.25296 50.3335 8.25296C50.0108 8.25296 49.7322 8.19422 49.5122 8.06205C49.2922 7.92988 49.1162 7.76834 48.9842 7.54807C48.8522 7.32779 48.7642 7.09282 48.7055 6.82849C48.6469 6.56415 48.6175 6.28513 48.6175 5.99142C48.6175 5.7124 48.6469 5.43338 48.7055 5.15436C48.7642 4.87534 48.8522 4.64037 48.9842 4.42009C49.1162 4.2145 49.2922 4.03828 49.5122 3.90611C49.7322 3.77394 50.0108 3.70051 50.3335 3.70051C50.6561 3.70051 50.9348 3.75925 51.1694 3.90611C51.3894 4.03828 51.5654 4.2145 51.6974 4.42009C51.8294 4.62569 51.9174 4.87534 51.976 5.15436C52.0347 5.43338 52.064 5.7124 52.064 5.99142C52.0494 6.28513 52.02 6.56415 51.976 6.82849Z" fill="#ACFD00"/>
<path d="M27.5573 3.71539C27.2493 3.71539 26.9853 3.78882 26.78 3.92099C26.5747 4.06784 26.3987 4.24407 26.2667 4.46434C26.1347 4.68462 26.0467 4.93427 25.988 5.19861C25.9294 5.46295 25.9001 5.74197 25.9001 6.0063C25.9001 6.25595 25.9294 6.52029 25.988 6.78462C26.0467 7.04896 26.1347 7.28392 26.252 7.5042C26.3694 7.72448 26.5454 7.90071 26.7507 8.03288C26.956 8.16504 27.22 8.23847 27.5133 8.23847C27.9826 8.23847 28.3346 8.1063 28.5839 7.84197C28.8332 7.57763 28.9946 7.22518 29.0532 6.79931H30.9305C30.7985 7.73917 30.4318 8.45875 29.8305 8.95805C29.2292 9.45735 28.4519 9.69232 27.5133 9.69232C26.9853 9.69232 26.5014 9.6042 26.0614 9.42798C25.6214 9.25176 25.2401 9.00211 24.9321 8.67903C24.6241 8.35595 24.3748 7.97413 24.1988 7.53357C24.0228 7.09302 23.9348 6.6084 23.9348 6.07973C23.9348 5.53637 24.0081 5.02239 24.1695 4.55246C24.3308 4.08253 24.5655 3.67134 24.8734 3.33358C25.1814 2.99581 25.5627 2.71679 26.0174 2.52588C26.472 2.33498 26.9707 2.23218 27.5573 2.23218C27.9826 2.23218 28.3786 2.29092 28.7746 2.39372C29.1559 2.49651 29.5079 2.67274 29.8159 2.89302C30.1238 3.1133 30.3732 3.39232 30.5638 3.73008C30.7545 4.06784 30.8718 4.46434 30.8865 4.91959H28.9799C28.8626 4.12658 28.3786 3.71539 27.5573 3.71539Z" fill="#ACFD00"/>
<path d="M18.1271 4.90476C17.9951 4.40546 17.7897 3.9649 17.5111 3.56839C17.2324 3.17189 16.8658 2.8635 16.4258 2.64322C15.9858 2.40825 15.4579 2.29077 14.8712 2.29077C14.3432 2.29077 13.8446 2.37888 13.4193 2.56979C12.9793 2.7607 12.598 3.02504 12.29 3.34811C11.9674 3.68588 11.7327 4.06769 11.5567 4.52294C11.3807 4.97818 11.2927 5.4628 11.2927 5.99147C11.2927 6.53483 11.3807 7.03413 11.542 7.48937C11.7034 7.94462 11.9527 8.32644 12.2607 8.6642C12.5687 8.98727 12.95 9.23692 13.39 9.41315C13.8299 9.58937 14.3286 9.67748 14.8859 9.67748C15.6778 9.67748 16.3525 9.50126 16.9244 9.13413C17.4818 8.76699 17.9071 8.1649 18.1711 7.32783H16.4698C16.4111 7.54811 16.2351 7.75371 15.9565 7.94462C15.6778 8.13553 15.3405 8.23832 14.9592 8.23832C14.4166 8.23832 14.0059 8.09147 13.7126 7.81245C13.4193 7.53343 13.258 7.07818 13.2433 6.4614H18.303C18.2884 5.91804 18.2444 5.40406 18.1271 4.90476ZM13.1993 5.24252C13.214 5.11035 13.2433 4.94881 13.2873 4.78727C13.3313 4.61105 13.4193 4.44951 13.5513 4.30266C13.6686 4.15581 13.8299 4.02364 14.0353 3.92084C14.2406 3.81804 14.4899 3.7593 14.7979 3.7593C15.2672 3.7593 15.6192 3.89147 15.8538 4.14112C16.0885 4.39077 16.2498 4.77259 16.3378 5.2572H13.1993V5.24252Z" fill="#ACFD00"/>
<path d="M43.7483 0.690132V1.14538V3.43629C43.2937 2.68734 42.5897 2.3202 41.6951 2.3202C39.7738 2.39363 38.8206 3.64188 38.8206 6.09433C38.8206 8.48803 39.9352 9.70691 42.1644 9.75097C44.4083 9.76566 45.5376 8.69363 45.5376 6.5202V0.0146076C45.5376 0.0146076 44.3203 -0.161616 43.7483 0.690132ZM42.1937 8.19433C41.1671 8.19433 40.6685 7.46006 40.6831 6.00622C40.7418 4.61111 41.2404 3.93559 42.2231 3.93559C43.2057 3.93559 43.7043 4.61111 43.7483 6.00622C43.7336 7.46006 43.2203 8.19433 42.1937 8.19433Z" fill="#ACFD00"/>
<path d="M34.7438 2.2467C32.6906 2.2467 31.9866 3.17188 31.928 4.56698H33.6146C33.7026 4.22922 33.9812 3.71524 34.8318 3.72992C35.5798 3.74461 35.9611 3.93552 36.0051 4.3467C36.0051 4.74321 35.6091 4.97817 34.8318 5.06628C33.0133 5.24251 31.752 5.71244 31.7227 7.43062C31.7227 9.03132 32.9253 9.82433 34.6412 9.69216C36.5917 9.55999 37.7797 8.66419 37.7797 6.68167V4.24391C37.7357 2.90754 36.7237 2.2467 34.7438 2.2467ZM36.0198 6.60824C36.0198 7.63621 35.4038 8.22363 34.4065 8.22363C33.8345 8.22363 33.5412 7.94461 33.4972 7.38656C33.4972 6.85789 33.8639 6.52013 34.5825 6.37328C35.1105 6.27048 35.6091 6.19705 36.0198 6.02083V6.60824Z" fill="#ACFD00"/>
<path d="M22.6294 4.21463C21.6175 4.21463 21.1482 4.86079 21.1482 5.91813V9.66289H19.3149V5.93282C19.3736 3.59785 20.5175 2.30554 22.9228 2.30554H23.4654V4.18526L22.6294 4.21463Z" fill="#ACFD00"/>
<path d="M9.50353 9.66289C8.90223 9.61883 8.60891 9.33981 8.60891 8.76708V5.0517C8.56491 4.30275 8.15426 3.93561 7.3623 3.93561C6.57034 3.93561 6.14503 4.30275 6.14503 5.0517V9.63352H4.31179V5.02233C4.26779 4.27337 3.85714 3.90624 3.06518 3.90624C2.25856 3.90624 1.84791 4.27337 1.83324 5.02233V9.63352H0V5.38946C0 3.33351 1.02662 2.30554 3.09451 2.30554C4.01847 2.30554 4.72243 2.51114 5.25041 2.92233C5.76372 2.52582 6.46768 2.33491 7.4063 2.33491C9.45953 2.33491 10.4861 3.36288 10.4715 5.41883V9.66289H9.50353Z" fill="#ACFD00"/>
</svg>
