<svg width="11" height="14" viewBox="0 0 11 14" fill="none" xmlns="http://www.w3.org/2000/svg">
<path d="M4.99219 13.3711C5.2207 13.7266 5.75391 13.7266 5.98242 13.3711C9.68945 8.03906 10.375 7.48047 10.375 5.5C10.375 2.80859 8.19141 0.625 5.5 0.625C2.7832 0.625 0.625 2.80859 0.625 5.5C0.625 7.48047 1.28516 8.03906 4.99219 13.3711ZM5.5 7.53125C4.35742 7.53125 3.46875 6.64258 3.46875 5.5C3.46875 4.38281 4.35742 3.46875 5.5 3.46875C6.61719 3.46875 7.53125 4.38281 7.53125 5.5C7.53125 6.64258 6.61719 7.53125 5.5 7.53125Z" fill="#999999"/>
</svg>
