<svg width="11" height="11" viewBox="0 0 11 11" fill="none" xmlns="http://www.w3.org/2000/svg">
<path d="M2.53224 4.625H0.969744C0.696306 4.625 0.500994 4.83984 0.500994 5.09375V9.78125C0.500994 10.0547 0.696306 10.25 0.969744 10.25H2.53224C2.78615 10.25 3.00099 10.0547 3.00099 9.78125V5.09375C3.00099 4.83984 2.78615 4.625 2.53224 4.625ZM1.75099 9.46875C1.47756 9.46875 1.28224 9.27344 1.28224 9C1.28224 8.74609 1.47756 8.53125 1.75099 8.53125C2.0049 8.53125 2.21974 8.74609 2.21974 9C2.21974 9.27344 2.0049 9.46875 1.75099 9.46875ZM8.00099 1.85156C8.00099 0.40625 7.06349 0.25 6.59474 0.25C6.18459 0.25 6.00881 1.03125 5.93068 1.38281C5.81349 1.8125 5.71584 2.24219 5.42287 2.53516C4.79787 3.17969 4.46584 3.98047 3.68459 4.74219C3.64552 4.80078 3.62599 4.85938 3.62599 4.91797V9.09766C3.62599 9.21484 3.72365 9.3125 3.84084 9.33203C4.15334 9.33203 4.56349 9.50781 4.87599 9.64453C5.50099 9.91797 6.26271 10.25 7.20021 10.25H7.25881C8.09865 10.25 9.09474 10.25 9.48537 9.68359C9.66115 9.44922 9.70021 9.15625 9.60256 8.80469C9.93459 8.47266 10.0908 7.84766 9.93459 7.33984C10.2666 6.89062 10.3057 6.24609 10.1104 5.79688C10.3447 5.5625 10.501 5.19141 10.4815 4.83984C10.4815 4.23438 9.97365 3.6875 9.32912 3.6875H7.33693C7.49318 3.14062 8.00099 2.67188 8.00099 1.85156Z" fill="#ACFD00"/>
</svg>
