<svg width="38" height="39" viewBox="0 0 38 39" fill="none" xmlns="http://www.w3.org/2000/svg">
<path d="M37.4805 33.6289L30.0586 26.207C29.6875 25.9102 29.2422 25.6875 28.7969 25.6875H27.6094C29.6133 23.0898 30.875 19.8242 30.875 16.1875C30.875 7.72656 23.8984 0.75 15.4375 0.75C6.90234 0.75 0 7.72656 0 16.1875C0 24.7227 6.90234 31.625 15.4375 31.625C19 31.625 22.2656 30.4375 24.9375 28.3594V29.6211C24.9375 30.0664 25.0859 30.5117 25.457 30.8828L32.8047 38.2305C33.5469 38.9727 34.6602 38.9727 35.3281 38.2305L37.4062 36.1523C38.1484 35.4844 38.1484 34.3711 37.4805 33.6289ZM15.4375 25.6875C10.168 25.6875 5.9375 21.457 5.9375 16.1875C5.9375 10.9922 10.168 6.6875 15.4375 6.6875C20.6328 6.6875 24.9375 10.9922 24.9375 16.1875C24.9375 21.457 20.6328 25.6875 15.4375 25.6875Z" fill="#555555"/>
</svg>
