<svg width="18" height="14" viewBox="0 0 18 14" fill="none" xmlns="http://www.w3.org/2000/svg">
<path d="M16.0312 0.8125H1.96875C1.17773 0.8125 0.5625 1.45703 0.5625 2.21875V12.5312C0.5625 13.3223 1.17773 13.9375 1.96875 13.9375H16.0312C16.793 13.9375 17.4375 13.3223 17.4375 12.5312V2.21875C17.4375 1.45703 16.793 0.8125 16.0312 0.8125ZM5.71875 3.625C6.74414 3.625 7.59375 4.47461 7.59375 5.5C7.59375 6.55469 6.74414 7.375 5.71875 7.375C4.66406 7.375 3.84375 6.55469 3.84375 5.5C3.84375 4.47461 4.66406 3.625 5.71875 3.625ZM9 10.5684C9 10.8906 8.70703 11.125 8.32617 11.125H3.08203C2.73047 11.125 2.4375 10.8906 2.4375 10.5684V10.0117C2.4375 9.07422 3.31641 8.3125 4.40039 8.3125H4.54688C4.89844 8.48828 5.2793 8.54688 5.71875 8.54688C6.12891 8.54688 6.50977 8.48828 6.86133 8.3125H7.00781C8.0918 8.3125 9 9.07422 9 10.0117V10.5684ZM15.5625 9.01562C15.5625 9.16211 15.4453 9.25 15.3281 9.25H11.1094C10.9629 9.25 10.875 9.16211 10.875 9.01562V8.54688C10.875 8.42969 10.9629 8.3125 11.1094 8.3125H15.3281C15.4453 8.3125 15.5625 8.42969 15.5625 8.54688V9.01562ZM15.5625 7.14062C15.5625 7.28711 15.4453 7.375 15.3281 7.375H11.1094C10.9629 7.375 10.875 7.28711 10.875 7.14062V6.67188C10.875 6.55469 10.9629 6.4375 11.1094 6.4375H15.3281C15.4453 6.4375 15.5625 6.55469 15.5625 6.67188V7.14062ZM15.5625 5.26562C15.5625 5.41211 15.4453 5.5 15.3281 5.5H11.1094C10.9629 5.5 10.875 5.41211 10.875 5.26562V4.79688C10.875 4.67969 10.9629 4.5625 11.1094 4.5625H15.3281C15.4453 4.5625 15.5625 4.67969 15.5625 4.79688V5.26562Z" fill="#999999"/>
</svg>
