<svg width="14" height="14" viewBox="0 0 14 14" fill="none" xmlns="http://www.w3.org/2000/svg">
<path d="M7 4.00586C5.125 4.00586 3.63086 5.5293 3.63086 7.375C3.63086 9.25 5.125 10.7441 7 10.7441C8.8457 10.7441 10.3691 9.25 10.3691 7.375C10.3691 5.5293 8.8457 4.00586 7 4.00586ZM7 9.57227C5.79883 9.57227 4.80273 8.60547 4.80273 7.375C4.80273 6.17383 5.76953 5.20703 7 5.20703C8.20117 5.20703 9.16797 6.17383 9.16797 7.375C9.16797 8.60547 8.20117 9.57227 7 9.57227ZM11.2773 3.88867C11.2773 3.44922 10.9258 3.09766 10.4863 3.09766C10.0469 3.09766 9.69531 3.44922 9.69531 3.88867C9.69531 4.32812 10.0469 4.67969 10.4863 4.67969C10.9258 4.67969 11.2773 4.32812 11.2773 3.88867ZM13.5039 4.67969C13.4453 3.625 13.2109 2.6875 12.4492 1.92578C11.6875 1.16406 10.75 0.929688 9.69531 0.871094C8.61133 0.8125 5.35938 0.8125 4.27539 0.871094C3.2207 0.929688 2.3125 1.16406 1.52148 1.92578C0.759766 2.6875 0.525391 3.625 0.466797 4.67969C0.408203 5.76367 0.408203 9.01562 0.466797 10.0996C0.525391 11.1543 0.759766 12.0625 1.52148 12.8535C2.3125 13.6152 3.2207 13.8496 4.27539 13.9082C5.35938 13.9668 8.61133 13.9668 9.69531 13.9082C10.75 13.8496 11.6875 13.6152 12.4492 12.8535C13.2109 12.0625 13.4453 11.1543 13.5039 10.0996C13.5625 9.01562 13.5625 5.76367 13.5039 4.67969ZM12.0977 11.2422C11.8926 11.8281 11.4238 12.2676 10.8672 12.502C9.98828 12.8535 7.9375 12.7656 7 12.7656C6.0332 12.7656 3.98242 12.8535 3.13281 12.502C2.54688 12.2676 2.10742 11.8281 1.87305 11.2422C1.52148 10.3926 1.60938 8.3418 1.60938 7.375C1.60938 6.4375 1.52148 4.38672 1.87305 3.50781C2.10742 2.95117 2.54688 2.51172 3.13281 2.27734C3.98242 1.92578 6.0332 2.01367 7 2.01367C7.9375 2.01367 9.98828 1.92578 10.8672 2.27734C11.4238 2.48242 11.8633 2.95117 12.0977 3.50781C12.4492 4.38672 12.3613 6.4375 12.3613 7.375C12.3613 8.3418 12.4492 10.3926 12.0977 11.2422Z" fill="#999999"/>
</svg>
