<svg width="179" height="41" viewBox="0 0 179 41" fill="none" xmlns="http://www.w3.org/2000/svg">
<g clip-path="url(#clip0)">
<path d="M35.3976 0H0.404816C0.178595 0 0 0.177694 0 0.402774V3.43542C0 3.6605 0.178595 3.8382 0.404816 3.8382H14.8115C15.383 3.8382 15.8473 4.3002 15.8473 4.86882V40.3011C15.8473 40.5261 16.0259 40.7038 16.2522 40.7038H19.4669C19.6931 40.7038 19.8717 40.5261 19.8717 40.3011V4.86882C19.8717 4.3002 20.336 3.8382 20.9075 3.8382H35.3857C35.6119 3.8382 35.7905 3.6605 35.7905 3.43542V0.402774C35.8024 0.177694 35.6238 0 35.3976 0Z" fill="white"/>
<path d="M39.3981 14.334L39.3148 11.9647C39.3029 11.7515 39.1243 11.5738 38.91 11.5738H36.2191C35.9929 11.5738 35.8143 11.7515 35.8143 11.9766V40.2892C35.8143 40.5143 35.9929 40.692 36.2191 40.692H39.2076C39.4339 40.692 39.6125 40.5143 39.6125 40.2892V25.9078C39.6125 19.6293 44.1845 15.2462 50.733 15.2462C50.9592 15.2462 51.1378 15.0685 51.1378 14.8434V11.6923C51.1378 11.4672 50.9592 11.2895 50.733 11.2895C46.8515 11.2895 43.5773 12.5926 41.1722 15.0329C40.5411 15.6726 39.422 15.2462 39.3981 14.334Z" fill="white"/>
<path d="M167.248 14.334L167.165 11.9647C167.153 11.7515 166.975 11.5738 166.76 11.5738H164.069C163.843 11.5738 163.665 11.7515 163.665 11.9766V40.2892C163.665 40.5143 163.843 40.692 164.069 40.692H167.058C167.284 40.692 167.463 40.5143 167.463 40.2892V25.9078C167.463 19.6293 172.035 15.2462 178.583 15.2462C178.81 15.2462 178.988 15.0685 178.988 14.8434V11.6923C178.988 11.4672 178.81 11.2895 178.583 11.2895C174.702 11.2895 171.428 12.5926 169.023 15.0329C168.391 15.6726 167.272 15.2462 167.248 14.334Z" fill="white"/>
<path d="M77.0341 25.4577C76.8555 30.9544 75.1172 37.5054 67.8067 37.5054C62.4369 37.5054 60.0437 34.9585 60.0437 29.2604V12.0477C60.0437 11.8227 59.8651 11.645 59.6389 11.645H56.6504C56.4242 11.645 56.2456 11.8227 56.2456 12.0477V29.2604C56.2456 37.15 59.7937 40.9882 67.1042 40.9882C70.6642 40.9882 73.4741 40.005 75.522 38.0385C76.1768 37.4106 77.2603 37.8489 77.2841 38.7493L77.3317 40.3011C77.3436 40.5262 77.5222 40.6921 77.7366 40.6921H80.4274C80.6536 40.6921 80.8322 40.5144 80.8322 40.2893V12.0477C80.8322 11.8227 80.6536 11.645 80.4274 11.645H77.4389C77.2127 11.645 77.0341 11.8227 77.0341 12.0477V25.4577Z" fill="white"/>
<path d="M99.0608 24.8773C94.6198 24.1073 90.7859 23.432 90.7859 19.6531C90.7859 16.419 93.0957 14.8435 97.8464 14.8435C102.335 14.8435 104.514 16.3835 104.907 19.8308L104.919 19.9611C104.943 20.1624 105.121 20.3165 105.324 20.3165H108.312C108.55 20.3165 108.741 20.1151 108.717 19.8781L108.705 19.7241C108.181 14.1801 104.538 11.3607 97.8464 11.3607C90.8097 11.3607 86.9283 14.3222 86.9283 19.7123C86.9283 26.4647 93.1196 27.5308 98.0845 28.3838C102.061 29.059 105.49 29.6513 105.49 32.5892C105.49 35.0295 104.597 37.5173 97.9654 37.5173C91.8337 37.5173 90.3811 35.3849 90.0834 32.1983L90.0715 32.068C90.0477 31.8547 89.881 31.7007 89.6667 31.7007H86.6306C86.3925 31.7007 86.2139 31.9021 86.2258 32.1272L86.2377 32.2812C86.6306 38.157 90.4763 41.0119 97.9654 41.0119C105.728 41.0119 109.348 38.3228 109.348 32.5418C109.348 26.6779 103.883 25.7184 99.0608 24.8773Z" fill="white"/>
<path d="M121.326 32.6957V15.3527C121.326 15.1277 121.504 14.95 121.73 14.95H128.934C129.16 14.95 129.339 14.7723 129.339 14.5472V11.9884C129.339 11.7633 129.16 11.5856 128.934 11.5856H122.362C121.79 11.5856 121.326 11.1236 121.326 10.555V3.68415C121.326 3.45907 121.147 3.28137 120.921 3.28137H117.932C117.706 3.28137 117.528 3.45907 117.528 3.68415V10.555C117.528 11.1236 117.063 11.5856 116.492 11.5856H112.908C112.682 11.5856 112.503 11.7633 112.503 11.9884V14.5472C112.503 14.7723 112.682 14.95 112.908 14.95H117.123C117.349 14.95 117.528 15.1277 117.528 15.3527V32.9918C117.528 38.3227 119.683 40.7038 124.517 40.7038H129.291C129.517 40.7038 129.696 40.5261 129.696 40.301V37.6237C129.696 37.3987 129.517 37.221 129.291 37.221H125.052C121.957 37.221 121.326 36.451 121.326 32.6957Z" fill="white"/>
<path d="M158.533 24.3441C158.2 16.0872 153.282 11.3487 145.043 11.3487C136.328 11.3605 131.327 16.7624 131.327 26.1802C131.327 35.598 136.328 40.9999 145.055 40.9999C151.877 40.9999 156.33 37.8607 157.938 31.9138L157.985 31.7361C158.057 31.4755 157.854 31.2268 157.592 31.2268H154.425C154.247 31.2268 154.092 31.3334 154.044 31.4992L154.008 31.594C152.699 35.5151 149.675 37.5053 145.055 37.5053C139.007 37.5053 135.649 33.9869 135.327 27.3056H158.14C158.366 27.3056 158.545 27.1279 158.545 26.9029L158.533 24.3441ZM135.47 23.8228C136.113 17.9471 139.411 14.8433 145.043 14.8433C149.139 14.8433 154.056 16.4189 154.532 23.8228H135.47Z" fill="white"/>
</g>
<defs>
<clipPath id="clip0">
<rect width="179" height="41" fill="white"/>
</clipPath>
</defs>
</svg>
