<svg width="31" height="33" viewBox="0 0 31 33" fill="none" xmlns="http://www.w3.org/2000/svg">
<path d="M27.6133 5.66407L19.2661 0.984435C16.9193 -0.328145 14.0807 -0.328145 11.7339 0.984435L3.41478 5.6498C1.30689 6.81971 0 9.07393 0 11.5136V20.3593C0 23.1842 1.50363 25.7808 3.94878 27.1362L13.4202 32.4436C14.7131 33.1712 16.2869 33.1712 17.5798 32.4436L27.0512 27.1362C29.4823 25.7665 31 23.1699 31 20.3593V11.4708C31 9.05966 29.7072 6.83398 27.6133 5.66407ZM27.529 13.3826L18.6899 28.249C18.3527 28.8197 17.8749 29.2763 17.3268 29.5901C16.7788 29.904 16.1464 30.0752 15.5 30.0752C14.1931 30.0752 12.9846 29.3761 12.3101 28.249L3.47099 13.3826C2.75431 12.1842 2.75431 10.6719 3.47099 9.47341L3.5272 9.37354C4.20172 8.24643 5.41024 7.56161 6.71713 7.56161H24.2829C25.5898 7.56161 26.7983 8.2607 27.4728 9.38781L27.529 9.48768C28.2457 10.6861 28.2457 12.1842 27.529 13.3826Z" fill="#ACFD00"/>
<path d="M20.32 11.7561H10.6799C10.4129 11.7561 10.2021 11.9701 10.2021 12.2412V12.7691C10.2021 13.0401 10.4129 13.2542 10.6799 13.2542H14.0526C14.432 13.2542 14.7271 13.568 14.7271 13.939V24.568C14.7271 24.8391 14.9379 25.0531 15.2049 25.0531H15.781C16.048 25.0531 16.2588 24.8391 16.2588 24.568V13.9532C16.2588 13.568 16.568 13.2684 16.9333 13.2684H20.32C20.587 13.2684 20.7978 13.0544 20.7978 12.7833V12.2555C20.7978 11.9844 20.587 11.7561 20.32 11.7561Z" fill="#ACFD00"/>
</svg>
