<svg width="44" height="47" viewBox="0 0 44 47" fill="none" xmlns="http://www.w3.org/2000/svg">
<path d="M39.1931 8.06701L27.3454 1.40207C24.0145 -0.467358 19.9855 -0.467358 16.6546 1.40207L4.84678 8.04669C1.85494 9.71292 0 12.9235 0 16.3982V28.9965C0 33.0199 2.13418 36.7181 5.60471 38.6485L19.048 46.2075C20.883 47.2438 23.117 47.2438 24.9519 46.2075L38.3953 38.6485C41.8459 36.6978 44 32.9996 44 28.9965V16.3372C44 12.9032 42.165 9.73325 39.1931 8.06701ZM39.0734 19.0601L26.5277 40.2335C26.049 41.0463 25.3708 41.6965 24.5929 42.1435C23.8151 42.5906 22.9175 42.8344 22 42.8344C20.1451 42.8344 18.4297 41.8387 17.4723 40.2335L4.92656 19.0601C3.90934 17.3532 3.90934 15.1993 4.92656 13.4924L5.00635 13.3502C5.96374 11.7449 7.67906 10.7696 9.534 10.7696H34.466C36.3209 10.7696 38.0363 11.7652 38.9937 13.3705L39.0734 13.5128C40.0907 15.2196 40.0907 17.3532 39.0734 19.0601Z" fill="#ACFD00"/>
</svg>
