<svg width="16" height="20" viewBox="0 0 16 20" fill="none" xmlns="http://www.w3.org/2000/svg">
<path d="M14.8413 0.743622H1.15865C0.779684 0.743622 0.480499 1.04842 0.480499 1.4345V2.18634C0.480499 2.57242 0.779684 2.87721 1.15865 2.87721H5.94559C6.48413 2.87721 6.90298 3.32425 6.90298 3.85257V18.9909C6.90298 19.377 7.20217 19.6818 7.58113 19.6818H8.3989C8.77787 19.6818 9.07705 19.377 9.07705 18.9909V3.87289C9.07705 3.32425 9.51586 2.89753 10.0344 2.89753H14.8413C15.2203 2.89753 15.5195 2.59274 15.5195 2.20666V1.45482C15.5195 1.06874 15.2203 0.743622 14.8413 0.743622Z" fill="#ACFD00"/>
</svg>
