<svg width="221" height="221" viewBox="0 0 221 221" fill="none" xmlns="http://www.w3.org/2000/svg">
<g clip-path="url(#clip0)">
<path d="M158.439 202.289H67.7128C65.6519 202.289 63.9346 200.624 63.9346 198.518V20.7677C63.9346 18.7105 65.6029 16.9962 67.7128 16.9962H158.439C160.499 16.9962 162.217 18.6616 162.217 20.7677V198.518C162.217 200.575 160.499 202.289 158.439 202.289Z" fill="#263238" stroke="#263238" stroke-miterlimit="10" stroke-linecap="round" stroke-linejoin="round"/>
<path d="M157.85 37.3231H68.3018V181.914H157.85V37.3231Z" fill="white" stroke="#263238" stroke-miterlimit="10" stroke-linecap="round" stroke-linejoin="round"/>
<path d="M122.815 27.2331H103.336C102.6 27.2331 102.011 26.6454 102.011 25.9107C102.011 25.176 102.6 24.5882 103.336 24.5882H122.815C123.551 24.5882 124.14 25.176 124.14 25.9107C124.14 26.6454 123.551 27.2331 122.815 27.2331Z" fill="white"/>
<path d="M118.399 190.093C118.399 187.154 116.044 184.803 113.1 184.803C110.156 184.803 107.801 187.154 107.801 190.093C107.801 193.032 110.156 195.383 113.1 195.383C115.995 195.383 118.399 193.032 118.399 190.093Z" fill="white" stroke="#263238" stroke-width="0.7043" stroke-miterlimit="10" stroke-linecap="round" stroke-linejoin="round"/>
<path d="M115.799 187.399H110.401V192.787H115.799V187.399Z" fill="#263238"/>
<path d="M164.475 127.104L163.886 131.513C163.886 131.513 161.481 147.872 163.15 156.346C164.818 164.819 167.958 173.44 168.106 175.497C168.302 177.505 167.173 185.44 168.498 191.857C169.774 198.273 172.178 211.008 172.178 211.008L170.166 215.808C170.166 215.808 165.947 218.551 165.358 219.482C164.818 220.412 165.75 220.755 165.75 220.755H178.999C178.999 220.755 179.538 219.629 179.538 217.62C179.538 215.612 179.538 206.012 179.538 204.738C179.538 203.465 180.274 181.571 181.01 177.701C181.746 173.832 182.482 144.59 182.482 144.59H183.218C183.218 144.59 186.702 173.636 187.634 176.771C188.567 179.905 192.443 193.326 193.523 196.069C194.651 198.812 195.927 208.412 196.663 210.763C197.399 213.163 198.135 215.906 198.331 217.375C198.527 218.845 199.263 220.706 199.263 220.706H209.224C209.224 220.706 209.42 219.041 208.684 217.963C207.948 216.837 203.14 212.086 202.404 208.559C201.668 205.081 203.532 188.869 203.336 183.187C203.14 177.505 201.471 176.771 201.471 171.775C201.471 166.828 203.336 151.742 203.336 144.541C203.336 137.39 202.404 130.729 200.539 126.957L197.988 124.459H166.29L164.475 127.104Z" fill="#D9D9D9" stroke="#263238" stroke-miterlimit="10" stroke-linecap="round" stroke-linejoin="round"/>
<path d="M203.925 211.89C203.925 211.939 201.324 210.273 200.392 211.547C199.46 212.82 199.46 213.555 199.46 213.555H197.497C197.89 215.073 198.233 216.494 198.331 217.424C198.527 218.894 199.264 220.755 199.264 220.755H209.224C209.224 220.755 209.42 219.09 208.684 218.012C208.194 217.179 205.642 214.584 203.925 211.89Z" fill="#C5FA3B"/>
<path d="M199.313 220.755H209.273C209.273 220.755 209.322 220.167 209.224 219.482H198.871C199.067 220.167 199.313 220.755 199.313 220.755Z" fill="white" stroke="#263238" stroke-miterlimit="10" stroke-linecap="round" stroke-linejoin="round"/>
<path d="M179.587 217.62C179.587 217.033 179.587 215.906 179.587 214.486H176.103C176.103 214.486 176.3 213.016 174.631 211.89C172.963 210.763 171.295 213.359 171.295 213.359H171.197L170.166 215.759C170.166 215.759 165.946 218.502 165.358 219.433C164.818 220.363 165.75 220.706 165.75 220.706H178.998C178.998 220.755 179.587 219.628 179.587 217.62Z" fill="#C5FA3B"/>
<path d="M165.358 219.482C164.818 220.412 165.75 220.755 165.75 220.755H178.998C178.998 220.755 179.195 220.314 179.391 219.482H165.358Z" fill="white" stroke="#263238" stroke-miterlimit="10" stroke-linecap="round" stroke-linejoin="round"/>
<path d="M202.355 201.8C202.649 195.53 203.434 187.008 203.336 183.187C203.14 177.505 201.471 176.771 201.471 171.775C201.471 166.828 203.336 151.742 203.336 144.541C203.336 137.39 202.404 130.729 200.539 126.957L197.988 124.459H166.29L164.475 127.055L163.886 131.464C163.886 131.464 161.481 147.823 163.15 156.297C164.818 164.77 167.958 173.391 168.106 175.448C168.302 177.456 167.173 185.391 168.498 191.808C169.087 194.649 169.823 198.665 170.559 202.289C172.718 202.779 176.153 203.318 179.636 203.122C179.784 197.783 180.422 180.983 181.059 177.652C181.795 173.783 182.531 144.541 182.531 144.541H183.267C183.267 144.541 186.751 173.587 187.684 176.722C188.616 179.856 192.492 193.277 193.572 196.02C194.062 197.195 194.553 199.596 195.044 202.191C197.006 202.583 199.558 202.632 202.355 201.8Z" fill="white" stroke="#263238" stroke-miterlimit="10" stroke-linecap="round" stroke-linejoin="round"/>
<path d="M185.476 142.925L195.436 134.99" stroke="#263238" stroke-miterlimit="10" stroke-linecap="round" stroke-linejoin="round"/>
<path d="M170.902 135.725L176.054 139.986" stroke="#263238" stroke-miterlimit="10" stroke-linecap="round" stroke-linejoin="round"/>
<path d="M192.541 46.5805C192.541 46.5805 188.321 44.0825 188.419 45.4049C188.517 46.7274 190.333 47.707 190.333 47.707C190.333 47.707 184.248 46.8254 183.316 47.2172C182.335 47.6091 184.003 48.0989 184.003 48.0989C184.003 48.0989 176.496 53.8786 173.895 57.797C171.295 61.7154 168.989 67.4951 171.687 71.9034C174.386 76.3116 178.311 79.7893 184.984 81.6995C191.609 83.6097 198.184 81.6015 202.6 79.7892C207.016 77.977 211.432 72.785 210.696 66.2706C209.911 59.7562 204.17 52.899 199.803 48.2948C195.485 43.6906 192.786 44.3764 192.786 45.0131C192.737 45.7478 192.541 46.5805 192.541 46.5805Z" fill="#263238" stroke="#263238" stroke-miterlimit="10" stroke-linecap="round" stroke-linejoin="round"/>
<path d="M182.188 73.8626L181.206 81.2586C181.206 81.2586 174.19 83.5607 171.589 84.6383C168.988 85.7159 167.86 87.0383 167.369 88.2139C166.879 89.3894 160.009 105.357 159.715 106.875C159.42 108.394 159.911 109.08 162.021 110.059C164.131 111.039 170.019 107.463 170.019 107.463L170.804 110.157C170.804 110.157 166.977 116.672 166.29 118.778C165.603 120.884 164.572 127.153 164.572 127.153C164.572 127.153 171.883 130.827 183.414 130.533C194.945 130.239 200.637 127.055 200.637 127.055C200.637 127.055 199.41 120.835 198.036 117.161C196.663 113.488 195.534 112.067 195.534 110.647C195.534 109.226 199.754 101.732 199.754 101.732L208.684 105.945C208.684 105.945 206.574 98.6467 205.985 93.7487C205.397 88.8506 204.415 88.0669 202.502 86.3036C200.588 84.5403 192.099 82.0913 191.805 81.8954C191.51 81.6995 192.197 73.6177 192.197 73.6177C192.197 73.6177 184.886 75.5279 182.188 73.8626Z" fill="#D9D9D9" stroke="#263238" stroke-miterlimit="10" stroke-linecap="round" stroke-linejoin="round"/>
<path d="M187.781 78.9565C189.106 78.4667 190.725 77.1933 192.001 76.0667C192.099 74.6952 192.197 73.6177 192.197 73.6177C192.197 73.6177 184.935 75.5279 182.237 73.9116L181.599 78.8096C183.022 80.1321 185.426 79.7892 187.781 78.9565Z" fill="#263238" stroke="#263238" stroke-miterlimit="10" stroke-linecap="round" stroke-linejoin="round"/>
<path d="M197.988 117.112C196.663 113.439 195.485 112.018 195.485 110.598C195.485 109.178 199.705 101.684 199.705 101.684L208.635 105.896C208.635 105.896 206.525 98.5978 205.937 93.6997C205.642 91.0548 205.201 89.5853 204.563 88.5568C190.873 90.2711 175.613 87.1853 169.528 85.7159C168.302 86.5486 167.664 87.4302 167.32 88.2139C166.83 89.3894 159.96 105.357 159.666 106.875C159.371 108.394 159.862 109.08 161.972 110.059C164.082 111.039 169.97 107.463 169.97 107.463L170.755 110.157C170.755 110.157 166.928 116.672 166.241 118.778C165.554 120.884 164.524 127.153 164.524 127.153C164.524 127.153 171.835 130.827 183.365 130.533C194.896 130.239 200.588 127.055 200.588 127.055C200.588 127.055 199.312 120.786 197.988 117.112Z" fill="#C5FA3B"/>
<path d="M171.196 104.769C171.196 104.769 169.283 100.753 169.823 98.6957C170.362 96.5895 170.706 96.0997 170.706 96.0997" stroke="#263238" stroke-miterlimit="10" stroke-linecap="round" stroke-linejoin="round"/>
<path d="M205.937 93.6997C205.643 91.0548 205.201 89.5853 204.563 88.5568C190.873 90.2711 175.613 87.1853 169.529 85.7159C168.302 86.5485 167.664 87.4302 167.321 88.2139C167.174 88.6057 166.192 90.8588 165.015 93.6507C170.412 95.1201 191.069 100.214 206.673 97.8141C206.379 96.3936 206.084 94.9732 205.937 93.6997Z" fill="#C5FA3B"/>
<path d="M184.052 56.0337L196.319 63.9196L195.976 67.1033C195.976 67.1033 198.184 64.8992 198.478 67.2503C198.822 69.6013 197.988 70.7768 196.466 71.4626C194.945 72.1483 194.111 71.9524 194.111 71.9524C194.111 71.9524 190.431 75.9688 187.732 76.9974C185.034 78.026 182.188 78.2709 180.863 76.0667C179.538 73.8626 177.674 69.9442 178.164 67.5931C178.655 65.2421 183.218 55.9847 183.218 55.9847H184.052V56.0337Z" fill="#D9D9D9" stroke="#263238" stroke-miterlimit="10" stroke-linecap="round" stroke-linejoin="round"/>
<path d="M185.279 63.4788C185.279 63.4788 185.279 64.5563 184.69 65.0951C184.101 65.6829 182.776 66.4176 182.776 67.0054C182.776 67.5931 184.003 68.7197 185.181 68.6217" stroke="#263238" stroke-miterlimit="10" stroke-linecap="round" stroke-linejoin="round"/>
<path d="M183.169 69.8952C183.169 69.8952 184.886 71.2177 186.996 69.7972" stroke="#263238" stroke-miterlimit="10" stroke-linecap="round" stroke-linejoin="round"/>
<path d="M187.781 64.8992C187.781 64.8992 189.891 64.1155 191.069 65.7808" stroke="#263238" stroke-miterlimit="10" stroke-linecap="round" stroke-linejoin="round"/>
<path d="M181.206 63.9685C181.206 63.9685 182.923 63.1848 183.807 64.1645" stroke="#263238" stroke-miterlimit="10" stroke-linecap="round" stroke-linejoin="round"/>
<path d="M182.286 60.6869C182.286 60.6869 183.169 59.4624 184.985 59.9032" stroke="#263238" stroke-miterlimit="10" stroke-linecap="round" stroke-linejoin="round"/>
<path d="M188.714 60.8828C188.714 60.8828 191.413 60.9808 192.001 63.4788" stroke="#263238" stroke-miterlimit="10" stroke-linecap="round" stroke-linejoin="round"/>
<path d="M164.082 103.643C164.082 103.643 161.089 104.818 160.157 106.631C159.176 108.443 159.372 112.704 163.15 113.733C166.879 114.81 194.602 109.227 194.602 109.227C194.602 109.227 196.123 111.529 196.81 112.214C197.497 112.9 199.215 114.223 199.313 114.81C199.411 115.398 199.607 119.023 200.392 119.219C201.177 119.415 200.883 117.504 200.883 117.504C200.883 117.504 202.11 115.692 202.11 114.81C202.11 113.929 202.306 111.137 202.11 110.5C201.913 109.814 197.399 105.896 196.418 105.602C195.436 105.308 170.805 104.622 168.498 104.28C166.241 103.839 164.867 103.594 164.082 103.643Z" fill="#D9D9D9" stroke="#263238" stroke-miterlimit="10" stroke-linecap="round" stroke-linejoin="round"/>
<path d="M188.615 77.2422L191.559 79.2014C192.099 79.5443 192.786 79.3974 193.13 78.9076L199.067 69.9931C199.41 69.4543 199.263 68.7686 198.772 68.4257L195.828 66.4665C195.289 66.1237 194.602 66.2706 194.258 66.7604L188.321 75.6748C187.978 76.1647 188.125 76.8994 188.615 77.2422Z" fill="#C5FA3B"/>
<path d="M197.448 77.3892C197.448 77.3892 198.037 75.8218 198.674 74.6952C199.263 73.5687 199.263 73.0299 198.871 73.0299C198.429 73.0299 197.301 73.5687 196.957 74.8422C196.614 76.1157 196.761 77.6831 196.761 77.6831L197.448 77.3892Z" fill="#D9D9D9" stroke="#263238" stroke-miterlimit="10"/>
<path d="M192.246 83.3648C192.246 83.3648 197.202 78.4177 197.349 77.9769C197.496 77.5851 197.349 71.9033 197.3 70.336C197.3 70.0911 197.104 69.8951 196.908 69.8462C196.613 69.7972 196.319 69.9931 196.319 70.287L195.926 74.8422L194.798 69.1114C194.749 68.8665 194.552 68.7196 194.307 68.7196C194.013 68.7196 193.767 68.9645 193.816 69.2584L194.16 75.6258L192.737 70.189C192.639 69.8951 192.393 69.7482 192.099 69.7972C191.854 69.8462 191.706 70.0911 191.706 70.3849L192.344 76.2626L191.118 77.2912V75.234L189.646 72.785C189.548 72.5891 189.302 72.5401 189.106 72.638C188.91 72.736 188.812 72.9809 188.91 73.1768L189.891 75.332C189.891 75.332 187.977 83.1199 187.879 83.3648C187.781 83.6097 188.223 85.0301 188.468 85.5199C188.713 86.0587 200.342 110.598 201.029 111.578C201.716 112.508 206.427 113.978 208.488 111.773C210.548 109.52 209.861 107.267 208.733 104.671C207.604 102.075 192.246 83.3648 192.246 83.3648Z" fill="#D9D9D9" stroke="#263238" stroke-miterlimit="10"/>
<path d="M111.579 130.141C122.961 130.141 132.187 120.931 132.187 109.569C132.187 98.2079 122.961 88.9976 111.579 88.9976C100.197 88.9976 90.9707 98.2079 90.9707 109.569C90.9707 120.931 100.197 130.141 111.579 130.141Z" fill="#C5FA3B"/>
<path d="M124.19 100.214H99.7539L111.775 111.823L124.19 100.214Z" fill="#263238"/>
<path d="M116.682 109.276L125.17 116.77V101.292L116.682 109.276Z" fill="#263238"/>
<path d="M107.016 109.227L98.3799 100.949V116.427L107.016 109.227Z" fill="#263238"/>
<path d="M115.603 110.255L111.776 113.831L108.046 110.255L99.1162 117.749H124.042L115.603 110.255Z" fill="#263238"/>
<path d="M62.1192 95.6589L62.5117 95.1691L68.5961 86.8914C68.5961 86.8914 69.4302 81.9444 69.8228 80.7198C70.2153 79.4953 71.0494 76.8994 71.3439 75.9198C71.6383 74.9401 71.8836 73.8626 72.4233 74.2544C72.9631 74.6463 72.9631 76.3116 72.7177 77.1443C72.4233 77.9769 72.4233 79.0545 72.5705 79.4953C72.7177 79.8872 79.9797 73.7156 80.6667 74.3034C81.3536 74.8422 80.3723 77.4382 78.9984 79.2504C77.6245 81.0137 71.9817 87.4792 71.9817 87.4792C71.9817 87.4792 65.5539 104.769 63.5912 107.463C61.6776 110.206 61.236 108.982 59.3223 107.463C57.4087 105.945 54.9062 102.516 54.9062 102.516L62.1192 95.6589Z" fill="white" stroke="#263238" stroke-miterlimit="10" stroke-linecap="round" stroke-linejoin="round"/>
<path d="M72.1289 84.1485C72.1289 84.1485 72.8159 81.6994 73.5028 81.1117C74.1897 80.5729 76.7903 78.9076 76.7903 78.9076L78.5568 73.4217C78.5568 73.4217 79.0965 73.0299 78.9493 74.2544C78.8021 75.4789 78.5568 78.2218 78.1151 79.4463C77.7226 80.6708 75.9071 82.875 75.9071 82.875" fill="white"/>
<path d="M72.1289 84.1485C72.1289 84.1485 72.8159 81.6994 73.5028 81.1117C74.1897 80.5729 76.7903 78.9076 76.7903 78.9076L78.5568 73.4217C78.5568 73.4217 79.0965 73.0299 78.9493 74.2544C78.8021 75.4789 78.5568 78.2218 78.1151 79.4463C77.7226 80.6708 75.9071 82.875 75.9071 82.875" stroke="#263238" stroke-miterlimit="10" stroke-linecap="round" stroke-linejoin="round"/>
<path d="M52.2568 74.6953L62.8063 95.365L54.7102 103.594L52.404 95.7569L52.2568 74.6953Z" fill="#C5FA3B"/>
<path d="M53.7285 100.361L54.7099 103.594L62.806 95.365L61.383 92.5242L53.7285 100.361Z" fill="#263238" stroke="#263238" stroke-miterlimit="10"/>
<path d="M26.8882 210.91L25.9069 214.779C25.9069 214.779 20.166 217.963 19.7243 218.404C19.2827 218.845 19.479 220.706 19.479 220.706H35.9657C35.9657 220.706 36.162 218.845 35.6222 216.445C35.3278 215.073 35.1806 211.253 35.1806 211.253L26.8882 210.91Z" fill="#263238" stroke="#263238" stroke-miterlimit="10" stroke-linecap="round" stroke-linejoin="round"/>
<path d="M19.4797 220.755H35.9664C35.9664 220.755 36.0155 220.363 36.0155 219.677H19.4307C19.4307 220.216 19.4797 220.755 19.4797 220.755Z" fill="white" stroke="#263238" stroke-miterlimit="10" stroke-linecap="round" stroke-linejoin="round"/>
<path d="M20.0682 218.257C20.0682 218.257 21.393 216.935 24.0427 216.494C26.6923 216.053 29.0966 217.033 29.6364 217.571C30.1761 218.11 30.5196 219.628 30.5196 219.628L19.4303 219.726C19.4303 219.677 18.8415 218.6 20.0682 218.257Z" fill="white" stroke="#263238" stroke-miterlimit="10" stroke-linecap="round" stroke-linejoin="round"/>
<path d="M34.2484 214.045C34.2484 214.975 33.9049 215.759 33.5124 215.759C33.1198 215.759 32.7764 214.975 32.7764 214.045C32.7764 213.114 33.1198 212.33 33.5124 212.33C33.9049 212.33 34.2484 213.114 34.2484 214.045Z" fill="white" stroke="#263238" stroke-miterlimit="10" stroke-linecap="round" stroke-linejoin="round"/>
<path d="M68.0068 210.91L68.9882 214.779C68.9882 214.779 74.729 217.963 75.1706 218.404C75.6123 218.845 75.416 220.706 75.416 220.706H58.9293C58.9293 220.706 58.7331 218.845 59.2728 216.445C59.5672 215.073 59.7144 211.253 59.7144 211.253L68.0068 210.91Z" fill="#263238" stroke="#263238" stroke-miterlimit="10" stroke-linecap="round" stroke-linejoin="round"/>
<path d="M75.4654 220.755H58.9788C58.9788 220.755 58.9297 220.363 58.9297 219.677H75.4654C75.5145 220.216 75.4654 220.755 75.4654 220.755Z" fill="white" stroke="#263238" stroke-miterlimit="10" stroke-linecap="round" stroke-linejoin="round"/>
<path d="M74.8274 218.257C74.8274 218.257 73.5025 216.935 70.8529 216.494C68.2032 216.053 65.7989 217.033 65.2592 217.571C64.7195 218.11 64.376 219.628 64.376 219.628L75.4652 219.726C75.5143 219.677 76.1031 218.6 74.8274 218.257Z" fill="white" stroke="#263238" stroke-miterlimit="10" stroke-linecap="round" stroke-linejoin="round"/>
<path d="M60.6953 214.045C60.6953 214.975 61.0388 215.759 61.4313 215.759C61.8239 215.759 62.1673 214.975 62.1673 214.045C62.1673 213.114 61.8239 212.33 61.4313 212.33C60.9897 212.33 60.6953 213.114 60.6953 214.045Z" fill="white" stroke="#263238" stroke-miterlimit="10" stroke-linecap="round" stroke-linejoin="round"/>
<path d="M26.7412 128.476L26.1523 137.047L26.8884 210.91L35.1317 211.302L43.326 143.072L44.4545 142.729L59.8126 211.302L68.0069 210.91L64.3759 164.966L58.8313 125.537L26.7412 128.476Z" fill="white" stroke="#263238" stroke-miterlimit="10" stroke-linecap="round" stroke-linejoin="round"/>
<path d="M44.0625 130.827V137.047L45.7799 134.207L46.0743 129.945" stroke="#808080" stroke-miterlimit="10" stroke-linecap="round" stroke-linejoin="round"/>
<path d="M32.3359 73.7156C32.3359 73.7156 13.7884 81.7974 13.543 82.6301C13.2486 83.4627 8.34187 103.888 9.12695 105.798C9.9611 107.708 12.4145 109.226 15.015 108.247C17.6156 107.267 20.1181 97.2752 20.1181 97.2752C20.1181 97.2752 25.908 114.81 25.908 116.574C25.908 118.337 26.4478 129.308 26.4478 129.308C26.4478 129.308 36.9973 130.827 45.7804 128.77C54.5634 126.713 58.8323 125.488 58.8323 125.488L54.7107 100.41C54.7107 100.41 52.5026 75.6258 52.2573 74.6462C52.0119 73.6666 36.3103 73.4217 35.0837 73.5687C33.857 73.7156 32.3359 73.7156 32.3359 73.7156Z" fill="#C5FA3B"/>
<path d="M18.3014 103.153C17.6145 100.998 16.3387 98.9896 15.0139 97.814C13.4928 96.4426 11.432 97.2263 10.0581 98.0589C9.32209 101.879 8.83141 105.063 9.12582 105.798C9.95997 107.708 12.4133 109.226 15.0139 108.247C16.2406 107.806 17.3692 105.553 18.3014 103.153Z" fill="#263238" stroke="#263238" stroke-miterlimit="10"/>
<path d="M23.6994 108.541L54.9554 101.977L54.71 100.41C54.71 100.41 54.661 99.9202 54.6119 99.0385L22.8652 105.7C23.1106 106.679 23.405 107.61 23.6994 108.541Z" fill="#263238"/>
<path d="M58.8319 125.537L55.7407 106.777L25.0244 113.145C25.5151 114.908 25.8586 116.231 25.8586 116.672C25.8586 118.435 26.3983 129.406 26.3983 129.406C26.3983 129.406 36.9478 130.925 45.7309 128.868C54.563 126.762 58.8319 125.537 58.8319 125.537Z" fill="#263238" stroke="#263238" stroke-miterlimit="10"/>
<path d="M35.083 73.5687C33.8563 73.7156 32.3352 73.7156 32.3352 73.7156C32.3352 73.7156 28.8514 75.234 24.877 76.9973L40.922 93.5527C40.922 93.5527 44.3568 77.0463 44.0623 75.6258C43.9642 75.0381 43.7189 74.3034 43.4735 73.6666C39.5481 73.5197 35.6718 73.5197 35.083 73.5687Z" fill="#263238" stroke="#263238" stroke-miterlimit="10"/>
<path d="M40.2841 68.9155C40.2841 68.9155 41.1183 76.0177 41.5108 77.3892C41.9033 78.7606 39.1556 88.3608 39.1556 88.3608C39.1556 88.3608 31.2066 80.279 30.2253 77.928C29.2439 75.5769 27.085 67.4951 27.085 67.4951C27.085 67.4951 34.1016 71.1197 40.2841 68.9155Z" fill="white" stroke="#263238" stroke-miterlimit="10" stroke-linecap="round" stroke-linejoin="round"/>
<path d="M27.1338 67.5441C27.1338 67.5441 27.6245 69.4053 28.2623 71.5605C28.6058 71.7564 28.9984 71.9523 29.489 72.1972C31.9915 73.4217 34.7883 74.1564 37.8305 73.7156C39.1553 73.5197 39.9895 72.736 40.6764 71.6584C40.4801 70.14 40.3329 68.9155 40.3329 68.9155C34.1014 71.1196 27.1338 67.5441 27.1338 67.5441Z" fill="#263238" stroke="#263238" stroke-miterlimit="10" stroke-linecap="round" stroke-linejoin="round"/>
<path d="M36.7515 50.9397C36.7515 50.9397 38.8123 55.103 40.2353 56.9153C41.6092 58.7276 43.8663 62.744 42.8849 65.095C41.9036 67.4461 41.2657 71.4625 38.1744 71.9033C35.1322 72.2952 32.3354 71.6095 29.833 70.3849C27.3305 69.1604 27.0361 68.7196 27.0361 68.7196C27.0361 68.7196 24.9753 68.7196 23.6995 67.74C22.4728 66.7604 19.9704 63.7236 20.6573 61.0786C21.3443 58.4337 23.0126 58.1888 23.0126 58.1888C23.0126 58.1888 19.5288 56.8173 21.7859 53.3397C23.9939 49.8621 28.7535 48.6376 30.9615 48.6376C33.1695 48.5886 36.7515 50.9397 36.7515 50.9397Z" fill="white" stroke="#263238" stroke-miterlimit="10" stroke-linecap="round" stroke-linejoin="round"/>
<path d="M36.0645 55.4949C36.0645 55.4949 36.3589 56.0337 37.2911 56.7194C38.2725 57.4051 39.6464 57.0133 39.2538 58.2378C38.8613 59.4623 37.88 59.9031 37.0458 59.7562" stroke="#263238" stroke-miterlimit="10" stroke-linecap="round" stroke-linejoin="round"/>
<path d="M39.4009 61.3235C39.4009 61.3235 36.7513 62.8419 34.9358 62.695C33.1203 62.5481 32.2861 61.8623 32.2861 61.8623" stroke="#263238" stroke-miterlimit="10" stroke-linecap="round" stroke-linejoin="round"/>
<path d="M33.5625 62.744C33.5625 62.744 34.5438 66.2216 35.9177 65.095C37.2916 63.9685 37.586 62.2052 37.586 62.2052C37.586 62.2052 35.5252 62.9889 33.5625 62.744Z" fill="#263238" stroke="#263238" stroke-miterlimit="10" stroke-linecap="round" stroke-linejoin="round"/>
<path d="M33.4644 56.7194C33.7588 57.2092 33.7588 57.748 33.4644 57.9439C33.1699 58.1398 32.6793 57.8949 32.3849 57.4051C32.0905 56.9153 32.0905 56.3765 32.3849 56.1806C32.6302 55.9847 33.1209 56.2296 33.4644 56.7194Z" fill="#263238"/>
<path d="M37.8804 54.6132C38.1748 55.103 38.1748 55.6418 37.8804 55.8377C37.586 56.0336 37.0953 55.7887 36.8009 55.2989C36.5065 54.8091 36.5065 54.2703 36.8009 54.0744C37.0953 53.8785 37.586 54.1234 37.8804 54.6132Z" fill="#263238"/>
<path d="M30.5195 56.2786C30.5195 56.2786 30.9121 54.4173 32.3841 54.1724" stroke="#263238" stroke-miterlimit="10" stroke-linecap="round" stroke-linejoin="round"/>
<path d="M35.2793 53.3887C35.2793 53.3887 36.0644 51.8703 37.3892 52.5071" stroke="#263238" stroke-miterlimit="10" stroke-linecap="round" stroke-linejoin="round"/>
<path d="M23.454 55.25C23.454 55.25 32.4824 55.25 33.1693 53.7316C33.8563 52.2132 31.7955 51.0866 31.7955 51.0866C31.7955 51.0866 39.5972 51.3805 40.4313 49.0295C41.2655 46.6784 37.6345 45.6988 36.555 45.6988C35.4265 45.6988 34.8867 45.6988 34.8867 45.6988C34.8867 45.6988 34.4942 42.2212 30.4216 43.0538C26.398 43.8865 18.5963 49.1764 17.664 52.2132C16.6827 55.25 14.4746 56.2296 16.1429 59.8541C17.8112 63.4787 22.3745 66.3685 22.3745 66.3685C22.3745 66.3685 21.6876 63.7236 23.0614 63.5767C24.4353 63.4297 26.7906 64.4093 27.2322 64.4093C27.6247 64.4093 28.9005 63.2828 28.2135 62.5971C27.5266 61.9113 26.8396 61.4705 26.6924 61.0787C26.5452 60.6868 27.3794 59.2664 26.8396 58.0419C26.2018 56.7684 23.454 55.25 23.454 55.25Z" fill="#263238" stroke="#263238" stroke-miterlimit="10" stroke-linecap="round" stroke-linejoin="round"/>
<path d="M31.1575 71.7074L27.9191 73.8625C27.3793 74.2054 26.6924 74.0585 26.3489 73.5687L20.0192 64.0175C19.6757 63.4787 19.823 62.793 20.3136 62.4501L23.5521 60.295C24.0918 59.9521 24.7788 60.099 25.1222 60.5888L31.4519 70.14C31.8445 70.6298 31.6973 71.3645 31.1575 71.7074Z" fill="#C5FA3B"/>
<path d="M21.786 71.9033C21.786 71.9033 21.1481 70.238 20.5102 69.0625C19.8723 67.8869 19.8723 67.3481 20.3139 67.3481C20.7556 67.3481 21.9822 67.8869 22.3257 69.2584C22.6692 70.6298 22.522 72.2952 22.522 72.2952L21.786 71.9033Z" fill="white" stroke="#263238" stroke-miterlimit="10"/>
<path d="M27.2811 78.1728C27.2811 78.1728 22.0799 72.9809 21.8836 72.4911C21.7364 72.0993 21.8836 66.1236 21.9818 64.4093C21.9818 64.1644 22.1781 63.9685 22.4234 63.9195C22.7178 63.8705 23.0122 64.0665 23.0613 64.4093L23.4538 69.2094L24.6314 63.1358C24.6805 62.8909 24.9258 62.695 25.1712 62.695C25.4656 62.695 25.7109 62.9399 25.7109 63.2338L25.3184 70.0421L26.8395 64.2624C26.9376 63.9685 27.232 63.7726 27.5264 63.8705C27.7717 63.9195 27.968 64.2134 27.9189 64.4583L27.232 70.6298L28.5078 71.7074V69.5033L30.0288 66.9073C30.127 66.7114 30.3723 66.6624 30.6177 66.7604C30.8139 66.8583 30.9121 67.1033 30.8139 67.3482L29.7835 69.6013C29.7835 69.6013 31.7953 77.83 31.8934 78.0749C31.9915 78.3688 31.5499 79.7892 31.2555 80.377C30.9611 80.9157 18.6943 106.875 18.0073 107.855C17.2713 108.884 12.3155 110.402 10.1565 108.051C7.94848 105.7 8.68449 103.3 9.86211 100.557C11.0397 97.912 27.2811 78.1728 27.2811 78.1728Z" fill="white" stroke="#263238" stroke-miterlimit="10"/>
<path d="M29.0967 133.766L36.0152 137.782" stroke="#808080" stroke-miterlimit="10" stroke-linecap="round" stroke-linejoin="round"/>
<path d="M57.2118 131.023L53.041 136.509" stroke="#808080" stroke-miterlimit="10" stroke-linecap="round" stroke-linejoin="round"/>
</g>
<defs>
<clipPath id="clip0">
<rect width="221" height="221" fill="white"/>
</clipPath>
</defs>
</svg>
