<svg width="14" height="11" viewBox="0 0 14 11" fill="none" xmlns="http://www.w3.org/2000/svg">
<path d="M12.625 0.25H1.375C0.742188 0.25 0.25 0.765625 0.25 1.375V9.625C0.25 10.2578 0.742188 10.75 1.375 10.75H12.625C13.2344 10.75 13.75 10.2578 13.75 9.625V1.375C13.75 0.765625 13.2344 0.25 12.625 0.25ZM12.625 9.625H1.375V1.375H12.625V9.625ZM5.125 5.5C5.94531 5.5 6.625 4.84375 6.625 4C6.625 3.17969 5.94531 2.5 5.125 2.5C4.28125 2.5 3.625 3.17969 3.625 4C3.625 4.84375 4.28125 5.5 5.125 5.5ZM3.01562 8.5H7.21094C7.51562 8.5 7.75 8.3125 7.75 8.05469V7.60938C7.75 6.85938 7.02344 6.25 6.15625 6.25C5.92188 6.25 5.73438 6.4375 5.125 6.4375C4.49219 6.4375 4.32812 6.25 4.07031 6.25C3.20312 6.25 2.5 6.85938 2.5 7.60938V8.05469C2.5 8.3125 2.73438 8.5 3.01562 8.5ZM8.6875 7H11.3125C11.4062 7 11.5 6.92969 11.5 6.8125V6.4375C11.5 6.34375 11.4062 6.25 11.3125 6.25H8.6875C8.57031 6.25 8.5 6.34375 8.5 6.4375V6.8125C8.5 6.92969 8.57031 7 8.6875 7ZM8.6875 5.5H11.3125C11.4062 5.5 11.5 5.42969 11.5 5.3125V4.9375C11.5 4.84375 11.4062 4.75 11.3125 4.75H8.6875C8.57031 4.75 8.5 4.84375 8.5 4.9375V5.3125C8.5 5.42969 8.57031 5.5 8.6875 5.5ZM8.6875 4H11.3125C11.4062 4 11.5 3.92969 11.5 3.8125V3.4375C11.5 3.34375 11.4062 3.25 11.3125 3.25H8.6875C8.57031 3.25 8.5 3.34375 8.5 3.4375V3.8125C8.5 3.92969 8.57031 4 8.6875 4Z" fill="#ACFD00"/>
</svg>
