<svg width="14" height="11" viewBox="0 0 14 11" fill="none" xmlns="http://www.w3.org/2000/svg">
<path d="M12.625 0.25H1.375C0.742188 0.25 0.25 0.765625 0.25 1.375V9.625C0.25 10.2578 0.742188 10.75 1.375 10.75H12.625C13.2344 10.75 13.75 10.2578 13.75 9.625V1.375C13.75 0.765625 13.2344 0.25 12.625 0.25ZM4.375 2.5C5.19531 2.5 5.875 3.17969 5.875 4C5.875 4.84375 5.19531 5.5 4.375 5.5C3.53125 5.5 2.875 4.84375 2.875 4C2.875 3.17969 3.53125 2.5 4.375 2.5ZM7 8.05469C7 8.3125 6.76562 8.5 6.46094 8.5H2.26562C1.98438 8.5 1.75 8.3125 1.75 8.05469V7.60938C1.75 6.85938 2.45312 6.25 3.32031 6.25H3.4375C3.71875 6.39062 4.02344 6.4375 4.375 6.4375C4.70312 6.4375 5.00781 6.39062 5.28906 6.25H5.40625C6.27344 6.25 7 6.85938 7 7.60938V8.05469ZM12.25 6.8125C12.25 6.92969 12.1562 7 12.0625 7H8.6875C8.57031 7 8.5 6.92969 8.5 6.8125V6.4375C8.5 6.34375 8.57031 6.25 8.6875 6.25H12.0625C12.1562 6.25 12.25 6.34375 12.25 6.4375V6.8125ZM12.25 5.3125C12.25 5.42969 12.1562 5.5 12.0625 5.5H8.6875C8.57031 5.5 8.5 5.42969 8.5 5.3125V4.9375C8.5 4.84375 8.57031 4.75 8.6875 4.75H12.0625C12.1562 4.75 12.25 4.84375 12.25 4.9375V5.3125ZM12.25 3.8125C12.25 3.92969 12.1562 4 12.0625 4H8.6875C8.57031 4 8.5 3.92969 8.5 3.8125V3.4375C8.5 3.34375 8.57031 3.25 8.6875 3.25H12.0625C12.1562 3.25 12.25 3.34375 12.25 3.4375V3.8125Z" fill="#ACFD00"/>
</svg>
