<svg width="12" height="13" viewBox="0 0 12 13" fill="none" xmlns="http://www.w3.org/2000/svg">
<path d="M11.6484 8.98438L9.02344 7.85938C8.95312 7.83594 8.88281 7.8125 8.78906 7.8125C8.625 7.8125 8.46094 7.90625 8.36719 8.02344L7.19531 9.45312C5.36719 8.58594 3.91406 7.13281 3.04688 5.30469L4.47656 4.13281C4.59375 4.03906 4.6875 3.875 4.6875 3.6875C4.6875 3.61719 4.66406 3.54688 4.64062 3.47656L3.51562 0.851562C3.42188 0.640625 3.21094 0.5 2.97656 0.5C2.95312 0.5 2.90625 0.523438 2.85938 0.523438L0.421875 1.08594C0.164062 1.15625 0 1.36719 0 1.625C0 7.64844 4.85156 12.5 10.875 12.5C11.1328 12.5 11.3438 12.3359 11.4141 12.0781L11.9766 9.64062C11.9766 9.59375 11.9766 9.54688 11.9766 9.52344C11.9766 9.28906 11.8359 9.07812 11.6484 8.98438Z" fill="#ACFD00"/>
</svg>
